<svg xmlns="http://www.w3.org/2000/svg" xmlns:xlink="http://www.w3.org/1999/xlink" width="440" height="247pt" viewBox="0 0 330 246.8"><g id="graph0" class="graph" transform="scale(1 1) rotate(0) translate(4 242.8)"><title>dependencies</title><polygon fill="#fff" stroke="transparent" points="-4 4 -4 -242.8 326 -242.8 326 4 -4 4"/><text x="161" y="-8.2" font-family="sans-serif" font-size="14" text-anchor="middle">dependencies</text><g id="clust1" class="cluster"><title>cluster_LoggerModule</title><polygon fill="none" stroke="#000" stroke-dasharray="1 5" points="8 -32.8 8 -230.8 314 -230.8 314 -32.8 8 -32.8"/></g><g id="clust6" class="cluster"><title>cluster_LoggerModule_providers</title><polygon fill="none" stroke="#000" points="16 -40.8 16 -92.8 306 -92.8 306 -40.8 16 -40.8"/></g><g id="clust4" class="cluster"><title>cluster_LoggerModule_exports</title><polygon fill="none" stroke="#000" points="96 -170.8 96 -222.8 216 -222.8 216 -170.8 96 -170.8"/></g><g id="node1" class="node"><title>CustomLogger</title><polygon fill="#fb8072" stroke="#000" points="207.99 -214.8 104.01 -214.8 104.01 -178.8 207.99 -178.8 207.99 -214.8"/><text x="156" y="-192.6" font-family="Times,serif" font-size="14" text-anchor="middle">CustomLogger</text></g><g id="node2" class="node"><title>LoggerModule</title><polygon fill="#8dd3c7" stroke="#000" points="205.98 -149.8 202.98 -153.8 181.98 -153.8 178.98 -149.8 106.02 -149.8 106.02 -113.8 205.98 -113.8 205.98 -149.8"/><text x="156" y="-127.6" font-family="Times,serif" font-size="14" text-anchor="middle">LoggerModule</text></g><g id="edge1" class="edge"><title>LoggerModule-&gt;CustomLogger</title><path fill="none" stroke="#000" stroke-dasharray="5 2" d="M156,-149.91C156,-149.91 156,-168.79 156,-168.79"/><polygon fill="#000" stroke="#000" points="152.5 -168.79 156 -178.79 159.5 -168.79 152.5 -168.79"/></g><g id="node3" class="node"><title>CustomLogger</title><ellipse cx="229" cy="-66.8" fill="#fdb462" stroke="#000" rx="68.94" ry="18"/><text x="229" y="-62.6" font-family="Times,serif" font-size="14" text-anchor="middle">CustomLogger</text></g><g id="edge2" class="edge"><title>CustomLogger-&gt;LoggerModule</title><path fill="none" stroke="#000" d="M183.01,-80.27C183.01,-80.27 183.01,-103.66 183.01,-103.66"/><polygon fill="#000" stroke="#000" points="179.51 -103.66 183.01 -113.66 186.51 -103.66 179.51 -103.66"/></g><g id="node4" class="node"><title>LogsService</title><ellipse cx="83" cy="-66.8" fill="#fdb462" stroke="#000" rx="59.11" ry="18"/><text x="83" y="-62.6" font-family="Times,serif" font-size="14" text-anchor="middle">LogsService</text></g><g id="edge3" class="edge"><title>LogsService-&gt;LoggerModule</title><path fill="none" stroke="#000" d="M124.16,-79.95C124.16,-79.95 124.16,-103.49 124.16,-103.49"/><polygon fill="#000" stroke="#000" points="120.66 -103.49 124.16 -113.49 127.66 -103.49 120.66 -103.49"/></g></g></svg>