<svg xmlns="http://www.w3.org/2000/svg" xmlns:xlink="http://www.w3.org/1999/xlink" width="286pt" height="247pt" viewBox="0 0 286 246.8"><g id="graph0" class="graph" transform="scale(1 1) rotate(0) translate(4 242.8)"><title>dependencies</title><polygon fill="#fff" stroke="transparent" points="-4 4 -4 -242.8 282 -242.8 282 4 -4 4"/><text x="139" y="-8.2" font-family="sans-serif" font-size="14" text-anchor="middle">dependencies</text><g id="clust1" class="cluster"><title>cluster_SmsModule</title><polygon fill="none" stroke="#000" stroke-dasharray="1 5" points="8 -32.8 8 -230.8 270 -230.8 270 -32.8 8 -32.8"/></g><g id="clust6" class="cluster"><title>cluster_SmsModule_providers</title><polygon fill="none" stroke="#000" points="132 -40.8 132 -92.8 262 -92.8 262 -40.8 132 -40.8"/></g><g id="clust4" class="cluster"><title>cluster_SmsModule_exports</title><polygon fill="none" stroke="#000" points="82 -170.8 82 -222.8 184 -222.8 184 -170.8 82 -170.8"/></g><g id="clust3" class="cluster"><title>cluster_SmsModule_imports</title><polygon fill="none" stroke="#000" points="16 -40.8 16 -92.8 124 -92.8 124 -40.8 16 -40.8"/></g><g id="node1" class="node"><title>UsersModule</title><polygon fill="#8dd3c7" stroke="#000" points="115.92 -84.8 112.92 -88.8 91.92 -88.8 88.92 -84.8 24.08 -84.8 24.08 -48.8 115.92 -48.8 115.92 -84.8"/><text x="70" y="-62.6" font-family="Times,serif" font-size="14" text-anchor="middle">UsersModule</text></g><g id="node2" class="node"><title>SmsModule</title><polygon fill="#8dd3c7" stroke="#000" points="174.67 -149.8 171.67 -153.8 150.67 -153.8 147.67 -149.8 91.33 -149.8 91.33 -113.8 174.67 -113.8 174.67 -149.8"/><text x="133" y="-127.6" font-family="Times,serif" font-size="14" text-anchor="middle">SmsModule</text></g><g id="edge1" class="edge"><title>UsersModule-&gt;SmsModule</title><path fill="none" stroke="#000" d="M103.44,-84.91C103.44,-84.91 103.44,-103.79 103.44,-103.79"/><polygon fill="#000" stroke="#000" points="99.94 -103.79 103.44 -113.79 106.94 -103.79 99.94 -103.79"/></g><g id="node3" class="node"><title>SmsService</title><polygon fill="#fb8072" stroke="#000" points="175.6 -214.8 90.4 -214.8 90.4 -178.8 175.6 -178.8 175.6 -214.8"/><text x="133" y="-192.6" font-family="Times,serif" font-size="14" text-anchor="middle">SmsService</text></g><g id="edge2" class="edge"><title>SmsModule-&gt;SmsService</title><path fill="none" stroke="#000" stroke-dasharray="5 2" d="M133,-149.91C133,-149.91 133,-168.79 133,-168.79"/><polygon fill="#000" stroke="#000" points="129.5 -168.79 133 -178.79 136.5 -168.79 129.5 -168.79"/></g><g id="node4" class="node"><title>SmsService</title><ellipse cx="197" cy="-66.8" fill="#fdb462" stroke="#000" rx="56.76" ry="18"/><text x="197" y="-62.6" font-family="Times,serif" font-size="14" text-anchor="middle">SmsService</text></g><g id="edge3" class="edge"><title>SmsService-&gt;SmsModule</title><path fill="none" stroke="#000" d="M157.6,-79.95C157.6,-79.95 157.6,-103.49 157.6,-103.49"/><polygon fill="#000" stroke="#000" points="154.1 -103.49 157.6 -113.49 161.1 -103.49 154.1 -103.49"/></g></g></svg>