<svg xmlns="http://www.w3.org/2000/svg" xmlns:xlink="http://www.w3.org/1999/xlink" width="278pt" height="232" viewBox="0 0 278 173.8"><g id="graph0" class="graph" transform="scale(1 1) rotate(0) translate(4 169.8)"><title>dependencies</title><polygon fill="#fff" stroke="transparent" points="-4 4 -4 -169.8 274 -169.8 274 4 -4 4"/><text x="135" y="-8.2" font-family="sans-serif" font-size="14" text-anchor="middle">dependencies</text><g id="clust1" class="cluster"><title>cluster_ProductCategoriesModule</title><polygon fill="none" stroke="#000" stroke-dasharray="1 5" points="8 -32.8 8 -157.8 262 -157.8 262 -32.8 8 -32.8"/></g><g id="clust6" class="cluster"><title>cluster_ProductCategoriesModule_providers</title><polygon fill="none" stroke="#000" points="16 -40.8 16 -92.8 254 -92.8 254 -40.8 16 -40.8"/></g><g id="node1" class="node"><title>ProductCategoriesService</title><ellipse cx="135" cy="-66.8" fill="#fdb462" stroke="#000" rx="111.15" ry="18"/><text x="135" y="-62.6" font-family="Times,serif" font-size="14" text-anchor="middle">ProductCategoriesService</text></g><g id="node2" class="node"><title>ProductCategoriesModule</title><polygon fill="#8dd3c7" stroke="#000" points="216.47 -149.8 213.47 -153.8 192.47 -153.8 189.47 -149.8 53.53 -149.8 53.53 -113.8 216.47 -113.8 216.47 -149.8"/><text x="135" y="-127.6" font-family="Times,serif" font-size="14" text-anchor="middle">ProductCategoriesModule</text></g><g id="edge1" class="edge"><title>ProductCategoriesService-&gt;ProductCategoriesModule</title><path fill="none" stroke="#000" d="M135,-84.91C135,-84.91 135,-103.79 135,-103.79"/><polygon fill="#000" stroke="#000" points="131.5 -103.79 135 -113.79 138.5 -103.79 131.5 -103.79"/></g></g></svg>