<svg xmlns="http://www.w3.org/2000/svg" xmlns:xlink="http://www.w3.org/1999/xlink" width="401pt" height="247pt" viewBox="0 0 401 246.8"><g id="graph0" class="graph" transform="scale(1 1) rotate(0) translate(4 242.8)"><title>dependencies</title><polygon fill="#fff" stroke="transparent" points="-4 4 -4 -242.8 397 -242.8 397 4 -4 4"/><text x="196.5" y="-8.2" font-family="sans-serif" font-size="14" text-anchor="middle">dependencies</text><g id="clust1" class="cluster"><title>cluster_UsersModule</title><polygon fill="none" stroke="#000" stroke-dasharray="1 5" points="8 -32.8 8 -230.8 385 -230.8 385 -32.8 8 -32.8"/></g><g id="clust3" class="cluster"><title>cluster_UsersModule_imports</title><polygon fill="none" stroke="#000" points="164 -40.8 164 -92.8 377 -92.8 377 -40.8 164 -40.8"/></g><g id="clust6" class="cluster"><title>cluster_UsersModule_providers</title><polygon fill="none" stroke="#000" points="16 -40.8 16 -92.8 156 -92.8 156 -40.8 16 -40.8"/></g><g id="clust4" class="cluster"><title>cluster_UsersModule_exports</title><polygon fill="none" stroke="#000" points="163 -170.8 163 -222.8 273 -222.8 273 -170.8 163 -170.8"/></g><g id="node1" class="node"><title>FilesModule</title><polygon fill="#8dd3c7" stroke="#000" points="369.27 -84.8 366.27 -88.8 345.27 -88.8 342.27 -84.8 282.73 -84.8 282.73 -48.8 369.27 -48.8 369.27 -84.8"/><text x="326" y="-62.6" font-family="Times,serif" font-size="14" text-anchor="middle">FilesModule</text></g><g id="node3" class="node"><title>UsersModule</title><polygon fill="#8dd3c7" stroke="#000" points="263.92 -149.8 260.92 -153.8 239.92 -153.8 236.92 -149.8 172.08 -149.8 172.08 -113.8 263.92 -113.8 263.92 -149.8"/><text x="218" y="-127.6" font-family="Times,serif" font-size="14" text-anchor="middle">UsersModule</text></g><g id="edge1" class="edge"><title>FilesModule-&gt;UsersModule</title><path fill="none" stroke="#000" d="M326,-84.91C326,-104.14 326,-131.8 326,-131.8 326,-131.8 273.8,-131.8 273.8,-131.8"/><polygon fill="#000" stroke="#000" points="273.8 -128.3 263.8 -131.8 273.8 -135.3 273.8 -128.3"/></g><g id="node2" class="node"><title>StripeModule</title><polygon fill="#8dd3c7" stroke="#000" points="264.49 -84.8 261.49 -88.8 240.49 -88.8 237.49 -84.8 171.51 -84.8 171.51 -48.8 264.49 -48.8 264.49 -84.8"/><text x="218" y="-62.6" font-family="Times,serif" font-size="14" text-anchor="middle">StripeModule</text></g><g id="edge2" class="edge"><title>StripeModule-&gt;UsersModule</title><path fill="none" stroke="#000" d="M218,-84.91C218,-84.91 218,-103.79 218,-103.79"/><polygon fill="#000" stroke="#000" points="214.5 -103.79 218 -113.79 221.5 -103.79 214.5 -103.79"/></g><g id="node4" class="node"><title>UsersService</title><polygon fill="#fb8072" stroke="#000" points="264.85 -214.8 171.15 -214.8 171.15 -178.8 264.85 -178.8 264.85 -214.8"/><text x="218" y="-192.6" font-family="Times,serif" font-size="14" text-anchor="middle">UsersService</text></g><g id="edge3" class="edge"><title>UsersModule-&gt;UsersService</title><path fill="none" stroke="#000" stroke-dasharray="5 2" d="M218,-149.91C218,-149.91 218,-168.79 218,-168.79"/><polygon fill="#000" stroke="#000" points="214.5 -168.79 218 -178.79 221.5 -168.79 214.5 -168.79"/></g><g id="node5" class="node"><title>UsersService</title><ellipse cx="86" cy="-66.8" fill="#fdb462" stroke="#000" rx="61.95" ry="18"/><text x="86" y="-62.6" font-family="Times,serif" font-size="14" text-anchor="middle">UsersService</text></g><g id="edge4" class="edge"><title>UsersService-&gt;UsersModule</title><path fill="none" stroke="#000" d="M86,-84.91C86,-104.14 86,-131.8 86,-131.8 86,-131.8 162.2,-131.8 162.2,-131.8"/><polygon fill="#000" stroke="#000" points="162.2 -135.3 172.2 -131.8 162.2 -128.3 162.2 -135.3"/></g></g></svg>