<svg xmlns="http://www.w3.org/2000/svg" xmlns:xlink="http://www.w3.org/1999/xlink" width="218pt" height="232" viewBox="0 0 218 173.8"><g id="graph0" class="graph" transform="scale(1 1) rotate(0) translate(4 169.8)"><title>dependencies</title><polygon fill="#fff" stroke="transparent" points="-4 4 -4 -169.8 214 -169.8 214 4 -4 4"/><text x="105" y="-8.2" font-family="sans-serif" font-size="14" text-anchor="middle">dependencies</text><g id="clust1" class="cluster"><title>cluster_CategoriesModule</title><polygon fill="none" stroke="#000" stroke-dasharray="1 5" points="8 -32.8 8 -157.8 202 -157.8 202 -32.8 8 -32.8"/></g><g id="clust6" class="cluster"><title>cluster_CategoriesModule_providers</title><polygon fill="none" stroke="#000" points="16 -40.8 16 -92.8 194 -92.8 194 -40.8 16 -40.8"/></g><g id="node1" class="node"><title>CategoriesService</title><ellipse cx="105" cy="-66.8" fill="#fdb462" stroke="#000" rx="81.07" ry="18"/><text x="105" y="-62.6" font-family="Times,serif" font-size="14" text-anchor="middle">CategoriesService</text></g><g id="node2" class="node"><title>CategoriesModule</title><polygon fill="#8dd3c7" stroke="#000" points="164.92 -149.8 161.92 -153.8 140.92 -153.8 137.92 -149.8 45.08 -149.8 45.08 -113.8 164.92 -113.8 164.92 -149.8"/><text x="105" y="-127.6" font-family="Times,serif" font-size="14" text-anchor="middle">CategoriesModule</text></g><g id="edge1" class="edge"><title>CategoriesService-&gt;CategoriesModule</title><path fill="none" stroke="#000" d="M105,-84.91C105,-84.91 105,-103.79 105,-103.79"/><polygon fill="#000" stroke="#000" points="101.5 -103.79 105 -113.79 108.5 -103.79 101.5 -103.79"/></g></g></svg>