<svg xmlns="http://www.w3.org/2000/svg" xmlns:xlink="http://www.w3.org/1999/xlink" width="484pt" height="232" viewBox="0 0 484 173.8"><g id="graph0" class="graph" transform="scale(1 1) rotate(0) translate(4 169.8)"><title>dependencies</title><polygon fill="#fff" stroke="transparent" points="-4 4 -4 -169.8 480 -169.8 480 4 -4 4"/><text x="238" y="-8.2" font-family="sans-serif" font-size="14" text-anchor="middle">dependencies</text><g id="clust1" class="cluster"><title>cluster_StripeWebhookModule</title><polygon fill="none" stroke="#000" stroke-dasharray="1 5" points="8 -32.8 8 -157.8 468 -157.8 468 -32.8 8 -32.8"/></g><g id="clust3" class="cluster"><title>cluster_StripeWebhookModule_imports</title><polygon fill="none" stroke="#000" points="242 -40.8 242 -92.8 460 -92.8 460 -40.8 242 -40.8"/></g><g id="clust6" class="cluster"><title>cluster_StripeWebhookModule_providers</title><polygon fill="none" stroke="#000" points="16 -40.8 16 -92.8 234 -92.8 234 -40.8 16 -40.8"/></g><g id="node1" class="node"><title>StripeModule</title><polygon fill="#8dd3c7" stroke="#000" points="452.49 -84.8 449.49 -88.8 428.49 -88.8 425.49 -84.8 359.51 -84.8 359.51 -48.8 452.49 -48.8 452.49 -84.8"/><text x="406" y="-62.6" font-family="Times,serif" font-size="14" text-anchor="middle">StripeModule</text></g><g id="node3" class="node"><title>StripeWebhookModule</title><polygon fill="#8dd3c7" stroke="#000" points="369.92 -149.8 366.92 -153.8 345.92 -153.8 342.92 -149.8 222.08 -149.8 222.08 -113.8 369.92 -113.8 369.92 -149.8"/><text x="296" y="-127.6" font-family="Times,serif" font-size="14" text-anchor="middle">StripeWebhookModule</text></g><g id="edge1" class="edge"><title>StripeModule-&gt;StripeWebhookModule</title><path fill="none" stroke="#000" d="M364.61,-84.91C364.61,-84.91 364.61,-103.79 364.61,-103.79"/><polygon fill="#000" stroke="#000" points="361.11 -103.79 364.61 -113.79 368.11 -103.79 361.11 -103.79"/></g><g id="node2" class="node"><title>UsersModule</title><polygon fill="#8dd3c7" stroke="#000" points="341.92 -84.8 338.92 -88.8 317.92 -88.8 314.92 -84.8 250.08 -84.8 250.08 -48.8 341.92 -48.8 341.92 -84.8"/><text x="296" y="-62.6" font-family="Times,serif" font-size="14" text-anchor="middle">UsersModule</text></g><g id="edge2" class="edge"><title>UsersModule-&gt;StripeWebhookModule</title><path fill="none" stroke="#000" d="M296,-84.91C296,-84.91 296,-103.79 296,-103.79"/><polygon fill="#000" stroke="#000" points="292.5 -103.79 296 -113.79 299.5 -103.79 292.5 -103.79"/></g><g id="node4" class="node"><title>StripeWebhookService</title><ellipse cx="125" cy="-66.8" fill="#fdb462" stroke="#000" rx="100.7" ry="18"/><text x="125" y="-62.6" font-family="Times,serif" font-size="14" text-anchor="middle">StripeWebhookService</text></g><g id="edge3" class="edge"><title>StripeWebhookService-&gt;StripeWebhookModule</title><path fill="none" stroke="#000" d="M225.86,-66.8C233.29,-66.8 237.95,-66.8 237.95,-66.8 237.95,-66.8 237.95,-103.69 237.95,-103.69"/><polygon fill="#000" stroke="#000" points="234.45 -103.69 237.95 -113.69 241.45 -103.69 234.45 -103.69"/></g></g></svg>