<svg xmlns="http://www.w3.org/2000/svg" xmlns:xlink="http://www.w3.org/1999/xlink" width="584pt" height="232" viewBox="0 0 584 173.8"><g id="graph0" class="graph" transform="scale(1 1) rotate(0) translate(4 169.8)"><title>dependencies</title><polygon fill="#fff" stroke="transparent" points="-4 4 -4 -169.8 580 -169.8 580 4 -4 4"/><text x="288" y="-8.2" font-family="sans-serif" font-size="14" text-anchor="middle">dependencies</text><g id="clust1" class="cluster"><title>cluster_GoogleAuthenticationModule</title><polygon fill="none" stroke="#000" stroke-dasharray="1 5" points="8 -32.8 8 -157.8 568 -157.8 568 -32.8 8 -32.8"/></g><g id="clust6" class="cluster"><title>cluster_GoogleAuthenticationModule_providers</title><polygon fill="none" stroke="#000" points="292 -40.8 292 -92.8 560 -92.8 560 -40.8 292 -40.8"/></g><g id="clust3" class="cluster"><title>cluster_GoogleAuthenticationModule_imports</title><polygon fill="none" stroke="#000" points="16 -40.8 16 -92.8 284 -92.8 284 -40.8 16 -40.8"/></g><g id="node1" class="node"><title>AuthenticationModule</title><polygon fill="#8dd3c7" stroke="#000" points="276.25 -84.8 273.25 -88.8 252.25 -88.8 249.25 -84.8 133.75 -84.8 133.75 -48.8 276.25 -48.8 276.25 -84.8"/><text x="205" y="-62.6" font-family="Times,serif" font-size="14" text-anchor="middle">AuthenticationModule</text></g><g id="node3" class="node"><title>GoogleAuthenticationModule</title><polygon fill="#8dd3c7" stroke="#000" points="296.97 -149.8 293.97 -153.8 272.97 -153.8 269.97 -149.8 113.03 -149.8 113.03 -113.8 296.97 -113.8 296.97 -149.8"/><text x="205" y="-127.6" font-family="Times,serif" font-size="14" text-anchor="middle">GoogleAuthenticationModule</text></g><g id="edge1" class="edge"><title>AuthenticationModule-&gt;GoogleAuthenticationModule</title><path fill="none" stroke="#000" d="M205,-84.91C205,-84.91 205,-103.79 205,-103.79"/><polygon fill="#000" stroke="#000" points="201.5 -103.79 205 -113.79 208.5 -103.79 201.5 -103.79"/></g><g id="node2" class="node"><title>UsersModule</title><polygon fill="#8dd3c7" stroke="#000" points="115.92 -84.8 112.92 -88.8 91.92 -88.8 88.92 -84.8 24.08 -84.8 24.08 -48.8 115.92 -48.8 115.92 -84.8"/><text x="70" y="-62.6" font-family="Times,serif" font-size="14" text-anchor="middle">UsersModule</text></g><g id="edge2" class="edge"><title>UsersModule-&gt;GoogleAuthenticationModule</title><path fill="none" stroke="#000" d="M116.13,-66.8C121.25,-66.8 124.67,-66.8 124.67,-66.8 124.67,-66.8 124.67,-103.69 124.67,-103.69"/><polygon fill="#000" stroke="#000" points="121.17 -103.69 124.67 -113.69 128.17 -103.69 121.17 -103.69"/></g><g id="node4" class="node"><title>GoogleAuthenticationService</title><ellipse cx="426" cy="-66.8" fill="#fdb462" stroke="#000" rx="125.62" ry="18"/><text x="426" y="-62.6" font-family="Times,serif" font-size="14" text-anchor="middle">GoogleAuthenticationService</text></g><g id="edge3" class="edge"><title>GoogleAuthenticationService-&gt;GoogleAuthenticationModule</title><path fill="none" stroke="#000" d="M300.04,-66.8C291.78,-66.8 286.68,-66.8 286.68,-66.8 286.68,-66.8 286.68,-103.69 286.68,-103.69"/><polygon fill="#000" stroke="#000" points="283.18 -103.69 286.68 -113.69 290.18 -103.69 283.18 -103.69"/></g></g></svg>