<svg xmlns="http://www.w3.org/2000/svg" xmlns:xlink="http://www.w3.org/1999/xlink" width="224" height="232" viewBox="0 0 168 173.8"><g id="graph0" class="graph" transform="scale(1 1) rotate(0) translate(4 169.8)"><title>dependencies</title><polygon fill="#fff" stroke="transparent" points="-4 4 -4 -169.8 164 -169.8 164 4 -4 4"/><text x="80" y="-8.2" font-family="sans-serif" font-size="14" text-anchor="middle">dependencies</text><g id="clust1" class="cluster"><title>cluster_CreditCardsModule</title><polygon fill="none" stroke="#000" stroke-dasharray="1 5" points="8 -32.8 8 -157.8 152 -157.8 152 -32.8 8 -32.8"/></g><g id="clust3" class="cluster"><title>cluster_CreditCardsModule_imports</title><polygon fill="none" stroke="#000" points="26 -40.8 26 -92.8 134 -92.8 134 -40.8 26 -40.8"/></g><g id="node1" class="node"><title>StripeModule</title><polygon fill="#8dd3c7" stroke="#000" points="126.49 -84.8 123.49 -88.8 102.49 -88.8 99.49 -84.8 33.51 -84.8 33.51 -48.8 126.49 -48.8 126.49 -84.8"/><text x="80" y="-62.6" font-family="Times,serif" font-size="14" text-anchor="middle">StripeModule</text></g><g id="node2" class="node"><title>CreditCardsModule</title><polygon fill="#8dd3c7" stroke="#000" points="143.7 -149.8 140.7 -153.8 119.7 -153.8 116.7 -149.8 16.3 -149.8 16.3 -113.8 143.7 -113.8 143.7 -149.8"/><text x="80" y="-127.6" font-family="Times,serif" font-size="14" text-anchor="middle">CreditCardsModule</text></g><g id="edge1" class="edge"><title>StripeModule-&gt;CreditCardsModule</title><path fill="none" stroke="#000" d="M80,-84.91C80,-84.91 80,-103.79 80,-103.79"/><polygon fill="#000" stroke="#000" points="76.5 -103.79 80 -113.79 83.5 -103.79 76.5 -103.79"/></g></g></svg>