<svg xmlns="http://www.w3.org/2000/svg" xmlns:xlink="http://www.w3.org/1999/xlink" width="2116" height="247pt" viewBox="0 0 1587 246.8"><g id="graph0" class="graph" transform="scale(1 1) rotate(0) translate(4 242.8)"><title>dependencies</title><polygon fill="#fff" stroke="transparent" points="-4 4 -4 -242.8 1583 -242.8 1583 4 -4 4"/><text x="789.5" y="-8.2" font-family="sans-serif" font-size="14" text-anchor="middle">dependencies</text><g id="clust1" class="cluster"><title>cluster_AuthenticationModule</title><polygon fill="none" stroke="#000" stroke-dasharray="1 5" points="8 -32.8 8 -230.8 1571 -230.8 1571 -32.8 8 -32.8"/></g><g id="clust4" class="cluster"><title>cluster_AuthenticationModule_exports</title><polygon fill="none" stroke="#000" points="756 -170.8 756 -222.8 916 -222.8 916 -170.8 756 -170.8"/></g><g id="clust3" class="cluster"><title>cluster_AuthenticationModule_imports</title><polygon fill="none" stroke="#000" points="1269 -40.8 1269 -92.8 1563 -92.8 1563 -40.8 1269 -40.8"/></g><g id="clust6" class="cluster"><title>cluster_AuthenticationModule_providers</title><polygon fill="none" stroke="#000" points="16 -40.8 16 -92.8 1261 -92.8 1261 -40.8 16 -40.8"/></g><g id="node1" class="node"><title>EmailConfirmationModule</title><polygon fill="#8dd3c7" stroke="#000" points="1555.42 -84.8 1552.42 -88.8 1531.42 -88.8 1528.42 -84.8 1386.58 -84.8 1386.58 -48.8 1555.42 -48.8 1555.42 -84.8"/><text x="1471" y="-62.6" font-family="Times,serif" font-size="14" text-anchor="middle">EmailConfirmationModule</text></g><g id="node3" class="node"><title>AuthenticationModule</title><polygon fill="#8dd3c7" stroke="#000" points="907.25 -149.8 904.25 -153.8 883.25 -153.8 880.25 -149.8 764.75 -149.8 764.75 -113.8 907.25 -113.8 907.25 -149.8"/><text x="836" y="-127.6" font-family="Times,serif" font-size="14" text-anchor="middle">AuthenticationModule</text></g><g id="edge1" class="edge"><title>EmailConfirmationModule-&gt;AuthenticationModule</title><path fill="none" stroke="#000" d="M1471,-85.09C1471,-107.01 1471,-140.8 1471,-140.8 1471,-140.8 917.3,-140.8 917.3,-140.8"/><polygon fill="#000" stroke="#000" points="917.3 -137.3 907.3 -140.8 917.3 -144.3 917.3 -137.3"/></g><g id="node2" class="node"><title>UsersModule</title><polygon fill="#8dd3c7" stroke="#000" points="1368.92 -84.8 1365.92 -88.8 1344.92 -88.8 1341.92 -84.8 1277.08 -84.8 1277.08 -48.8 1368.92 -48.8 1368.92 -84.8"/><text x="1323" y="-62.6" font-family="Times,serif" font-size="14" text-anchor="middle">UsersModule</text></g><g id="edge2" class="edge"><title>UsersModule-&gt;AuthenticationModule</title><path fill="none" stroke="#000" d="M1323,-84.91C1323,-104.14 1323,-131.8 1323,-131.8 1323,-131.8 917.34,-131.8 917.34,-131.8"/><polygon fill="#000" stroke="#000" points="917.34 -128.3 907.34 -131.8 917.34 -135.3 917.34 -128.3"/></g><g id="node4" class="node"><title>AuthenticationService</title><polygon fill="#fb8072" stroke="#000" points="908.18 -214.8 763.82 -214.8 763.82 -178.8 908.18 -178.8 908.18 -214.8"/><text x="836" y="-192.6" font-family="Times,serif" font-size="14" text-anchor="middle">AuthenticationService</text></g><g id="edge3" class="edge"><title>AuthenticationModule-&gt;AuthenticationService</title><path fill="none" stroke="#000" stroke-dasharray="5 2" d="M836,-149.91C836,-149.91 836,-168.79 836,-168.79"/><polygon fill="#000" stroke="#000" points="832.5 -168.79 836 -178.79 839.5 -168.79 832.5 -168.79"/></g><g id="node5" class="node"><title>AuthenticationService</title><ellipse cx="1156" cy="-66.8" fill="#fdb462" stroke="#000" rx="97.27" ry="18"/><text x="1156" y="-62.6" font-family="Times,serif" font-size="14" text-anchor="middle">AuthenticationService</text></g><g id="edge4" class="edge"><title>AuthenticationService-&gt;AuthenticationModule</title><path fill="none" stroke="#000" d="M1156,-84.83C1156,-101.2 1156,-122.8 1156,-122.8 1156,-122.8 917.42,-122.8 917.42,-122.8"/><polygon fill="#000" stroke="#000" points="917.42 -119.3 907.42 -122.8 917.42 -126.3 917.42 -119.3"/></g><g id="node6" class="node"><title>JwtRefreshTokenStrategy</title><ellipse cx="929" cy="-66.8" fill="#fdb462" stroke="#000" rx="111.15" ry="18"/><text x="929" y="-62.6" font-family="Times,serif" font-size="14" text-anchor="middle">JwtRefreshTokenStrategy</text></g><g id="edge5" class="edge"><title>JwtRefreshTokenStrategy-&gt;AuthenticationModule</title><path fill="none" stroke="#000" d="M862.52,-81.55C862.52,-81.55 862.52,-103.39 862.52,-103.39"/><polygon fill="#000" stroke="#000" points="859.03 -103.39 862.52 -113.39 866.03 -103.39 859.03 -103.39"/></g><g id="node7" class="node"><title>JwtStrategy</title><ellipse cx="743" cy="-66.8" fill="#fdb462" stroke="#000" rx="56.76" ry="18"/><text x="743" y="-62.6" font-family="Times,serif" font-size="14" text-anchor="middle">JwtStrategy</text></g><g id="edge6" class="edge"><title>JwtStrategy-&gt;AuthenticationModule</title><path fill="none" stroke="#000" d="M782.13,-79.95C782.13,-79.95 782.13,-103.49 782.13,-103.49"/><polygon fill="#000" stroke="#000" points="778.63 -103.49 782.13 -113.49 785.63 -103.49 778.63 -103.49"/></g><g id="node8" class="node"><title>JwtTwoFactorStrategy</title><ellipse cx="569" cy="-66.8" fill="#fdb462" stroke="#000" rx="98.99" ry="18"/><text x="569" y="-62.6" font-family="Times,serif" font-size="14" text-anchor="middle">JwtTwoFactorStrategy</text></g><g id="edge7" class="edge"><title>JwtTwoFactorStrategy-&gt;AuthenticationModule</title><path fill="none" stroke="#000" d="M569,-84.83C569,-101.2 569,-122.8 569,-122.8 569,-122.8 754.45,-122.8 754.45,-122.8"/><polygon fill="#000" stroke="#000" points="754.45 -126.3 764.45 -122.8 754.45 -119.3 754.45 -126.3"/></g><g id="node9" class="node"><title>LocalStrategy</title><ellipse cx="387" cy="-66.8" fill="#fdb462" stroke="#000" rx="65.41" ry="18"/><text x="387" y="-62.6" font-family="Times,serif" font-size="14" text-anchor="middle">LocalStrategy</text></g><g id="edge8" class="edge"><title>LocalStrategy-&gt;AuthenticationModule</title><path fill="none" stroke="#000" d="M387,-84.91C387,-104.14 387,-131.8 387,-131.8 387,-131.8 754.36,-131.8 754.36,-131.8"/><polygon fill="#000" stroke="#000" points="754.36 -135.3 764.36 -131.8 754.36 -128.3 754.36 -135.3"/></g><g id="node10" class="node"><title>TwoFactorAuthenticationService</title><ellipse cx="164" cy="-66.8" fill="#fdb462" stroke="#000" rx="139.5" ry="18"/><text x="164" y="-62.6" font-family="Times,serif" font-size="14" text-anchor="middle">TwoFactorAuthenticationService</text></g><g id="edge9" class="edge"><title>TwoFactorAuthenticationService-&gt;AuthenticationModule</title><path fill="none" stroke="#000" d="M164,-85.09C164,-107.01 164,-140.8 164,-140.8 164,-140.8 754.72,-140.8 754.72,-140.8"/><polygon fill="#000" stroke="#000" points="754.72 -144.3 764.72 -140.8 754.72 -137.3 754.72 -144.3"/></g></g></svg>