<svg xmlns="http://www.w3.org/2000/svg" xmlns:xlink="http://www.w3.org/1999/xlink" width="272" height="232" viewBox="0 0 204 173.8"><g id="graph0" class="graph" transform="scale(1 1) rotate(0) translate(4 169.8)"><title>dependencies</title><polygon fill="#fff" stroke="transparent" points="-4 4 -4 -169.8 200 -169.8 200 4 -4 4"/><text x="98" y="-8.2" font-family="sans-serif" font-size="14" text-anchor="middle">dependencies</text><g id="clust1" class="cluster"><title>cluster_ProductsModule</title><polygon fill="none" stroke="#000" stroke-dasharray="1 5" points="8 -32.8 8 -157.8 188 -157.8 188 -32.8 8 -32.8"/></g><g id="clust6" class="cluster"><title>cluster_ProductsModule_providers</title><polygon fill="none" stroke="#000" points="16 -40.8 16 -92.8 180 -92.8 180 -40.8 16 -40.8"/></g><g id="node1" class="node"><title>ProductsService</title><ellipse cx="98" cy="-66.8" fill="#fdb462" stroke="#000" rx="73.57" ry="18"/><text x="98" y="-62.6" font-family="Times,serif" font-size="14" text-anchor="middle">ProductsService</text></g><g id="node2" class="node"><title>ProductsModule</title><polygon fill="#8dd3c7" stroke="#000" points="152.04 -149.8 149.04 -153.8 128.04 -153.8 125.04 -149.8 43.96 -149.8 43.96 -113.8 152.04 -113.8 152.04 -149.8"/><text x="98" y="-127.6" font-family="Times,serif" font-size="14" text-anchor="middle">ProductsModule</text></g><g id="edge1" class="edge"><title>ProductsService-&gt;ProductsModule</title><path fill="none" stroke="#000" d="M98,-84.91C98,-84.91 98,-103.79 98,-103.79"/><polygon fill="#000" stroke="#000" points="94.5 -103.79 98 -113.79 101.5 -103.79 94.5 -103.79"/></g></g></svg>