<svg xmlns="http://www.w3.org/2000/svg" xmlns:xlink="http://www.w3.org/1999/xlink" width="512pt" height="247pt" viewBox="0 0 512 246.8"><g id="graph0" class="graph" transform="scale(1 1) rotate(0) translate(4 242.8)"><title>dependencies</title><polygon fill="#fff" stroke="transparent" points="-4 4 -4 -242.8 508 -242.8 508 4 -4 4"/><text x="252" y="-8.2" font-family="sans-serif" font-size="14" text-anchor="middle">dependencies</text><g id="clust1" class="cluster"><title>cluster_EmailConfirmationModule</title><polygon fill="none" stroke="#000" stroke-dasharray="1 5" points="8 -32.8 8 -230.8 496 -230.8 496 -32.8 8 -32.8"/></g><g id="clust6" class="cluster"><title>cluster_EmailConfirmationModule_providers</title><polygon fill="none" stroke="#000" points="242 -40.8 242 -92.8 488 -92.8 488 -40.8 242 -40.8"/></g><g id="clust4" class="cluster"><title>cluster_EmailConfirmationModule_exports</title><polygon fill="none" stroke="#000" points="87 -170.8 87 -222.8 273 -222.8 273 -170.8 87 -170.8"/></g><g id="clust3" class="cluster"><title>cluster_EmailConfirmationModule_imports</title><polygon fill="none" stroke="#000" points="16 -40.8 16 -92.8 234 -92.8 234 -40.8 16 -40.8"/></g><g id="node1" class="node"><title>EmailModule</title><polygon fill="#8dd3c7" stroke="#000" points="226.49 -84.8 223.49 -88.8 202.49 -88.8 199.49 -84.8 133.51 -84.8 133.51 -48.8 226.49 -48.8 226.49 -84.8"/><text x="180" y="-62.6" font-family="Times,serif" font-size="14" text-anchor="middle">EmailModule</text></g><g id="node3" class="node"><title>EmailConfirmationModule</title><polygon fill="#8dd3c7" stroke="#000" points="264.42 -149.8 261.42 -153.8 240.42 -153.8 237.42 -149.8 95.58 -149.8 95.58 -113.8 264.42 -113.8 264.42 -149.8"/><text x="180" y="-127.6" font-family="Times,serif" font-size="14" text-anchor="middle">EmailConfirmationModule</text></g><g id="edge1" class="edge"><title>EmailModule-&gt;EmailConfirmationModule</title><path fill="none" stroke="#000" d="M180,-84.91C180,-84.91 180,-103.79 180,-103.79"/><polygon fill="#000" stroke="#000" points="176.5 -103.79 180 -113.79 183.5 -103.79 176.5 -103.79"/></g><g id="node2" class="node"><title>UsersModule</title><polygon fill="#8dd3c7" stroke="#000" points="115.92 -84.8 112.92 -88.8 91.92 -88.8 88.92 -84.8 24.08 -84.8 24.08 -48.8 115.92 -48.8 115.92 -84.8"/><text x="70" y="-62.6" font-family="Times,serif" font-size="14" text-anchor="middle">UsersModule</text></g><g id="edge2" class="edge"><title>UsersModule-&gt;EmailConfirmationModule</title><path fill="none" stroke="#000" d="M105.75,-84.91C105.75,-84.91 105.75,-103.79 105.75,-103.79"/><polygon fill="#000" stroke="#000" points="102.25 -103.79 105.75 -113.79 109.25 -103.79 102.25 -103.79"/></g><g id="node4" class="node"><title>EmailConfirmationService</title><polygon fill="#fb8072" stroke="#000" points="265.35 -214.8 94.65 -214.8 94.65 -178.8 265.35 -178.8 265.35 -214.8"/><text x="180" y="-192.6" font-family="Times,serif" font-size="14" text-anchor="middle">EmailConfirmationService</text></g><g id="edge3" class="edge"><title>EmailConfirmationModule-&gt;EmailConfirmationService</title><path fill="none" stroke="#000" stroke-dasharray="5 2" d="M180,-149.91C180,-149.91 180,-168.79 180,-168.79"/><polygon fill="#000" stroke="#000" points="176.5 -168.79 180 -178.79 183.5 -168.79 176.5 -168.79"/></g><g id="node5" class="node"><title>EmailConfirmationService</title><ellipse cx="365" cy="-66.8" fill="#fdb462" stroke="#000" rx="115.18" ry="18"/><text x="365" y="-62.6" font-family="Times,serif" font-size="14" text-anchor="middle">EmailConfirmationService</text></g><g id="edge4" class="edge"><title>EmailConfirmationService-&gt;EmailConfirmationModule</title><path fill="none" stroke="#000" d="M257.06,-73.27C257.06,-73.27 257.06,-103.58 257.06,-103.58"/><polygon fill="#000" stroke="#000" points="253.56 -103.58 257.06 -113.58 260.56 -103.58 253.56 -103.58"/></g></g></svg>