<svg xmlns="http://www.w3.org/2000/svg" xmlns:xlink="http://www.w3.org/1999/xlink" width="386pt" height="232" viewBox="0 0 386 173.8"><g id="graph0" class="graph" transform="scale(1 1) rotate(0) translate(4 169.8)"><title>dependencies</title><polygon fill="#fff" stroke="transparent" points="-4 4 -4 -169.8 382 -169.8 382 4 -4 4"/><text x="189" y="-8.2" font-family="sans-serif" font-size="14" text-anchor="middle">dependencies</text><g id="clust1" class="cluster"><title>cluster_EmailSchedulingModule</title><polygon fill="none" stroke="#000" stroke-dasharray="1 5" points="8 -32.8 8 -157.8 370 -157.8 370 -32.8 8 -32.8"/></g><g id="clust3" class="cluster"><title>cluster_EmailSchedulingModule_imports</title><polygon fill="none" stroke="#000" points="254 -40.8 254 -92.8 362 -92.8 362 -40.8 254 -40.8"/></g><g id="clust6" class="cluster"><title>cluster_EmailSchedulingModule_providers</title><polygon fill="none" stroke="#000" points="16 -40.8 16 -92.8 246 -92.8 246 -40.8 16 -40.8"/></g><g id="node1" class="node"><title>EmailModule</title><polygon fill="#8dd3c7" stroke="#000" points="354.49 -84.8 351.49 -88.8 330.49 -88.8 327.49 -84.8 261.51 -84.8 261.51 -48.8 354.49 -48.8 354.49 -84.8"/><text x="308" y="-62.6" font-family="Times,serif" font-size="14" text-anchor="middle">EmailModule</text></g><g id="node2" class="node"><title>EmailSchedulingModule</title><polygon fill="#8dd3c7" stroke="#000" points="284.98 -149.8 281.98 -153.8 260.98 -153.8 257.98 -149.8 129.02 -149.8 129.02 -113.8 284.98 -113.8 284.98 -149.8"/><text x="207" y="-127.6" font-family="Times,serif" font-size="14" text-anchor="middle">EmailSchedulingModule</text></g><g id="edge1" class="edge"><title>EmailModule-&gt;EmailSchedulingModule</title><path fill="none" stroke="#000" d="M273.25,-84.91C273.25,-84.91 273.25,-103.79 273.25,-103.79"/><polygon fill="#000" stroke="#000" points="269.75 -103.79 273.25 -113.79 276.75 -103.79 269.75 -103.79"/></g><g id="node3" class="node"><title>EmailSchedulingService</title><ellipse cx="131" cy="-66.8" fill="#fdb462" stroke="#000" rx="106.52" ry="18"/><text x="131" y="-62.6" font-family="Times,serif" font-size="14" text-anchor="middle">EmailSchedulingService</text></g><g id="edge2" class="edge"><title>EmailSchedulingService-&gt;EmailSchedulingModule</title><path fill="none" stroke="#000" d="M183.26,-82.53C183.26,-82.53 183.26,-103.45 183.26,-103.45"/><polygon fill="#000" stroke="#000" points="179.76 -103.45 183.26 -113.45 186.76 -103.45 179.76 -103.45"/></g></g></svg>