<svg xmlns="http://www.w3.org/2000/svg" xmlns:xlink="http://www.w3.org/1999/xlink" width="338pt" height="232" viewBox="0 0 338 173.8"><g id="graph0" class="graph" transform="scale(1 1) rotate(0) translate(4 169.8)"><title>dependencies</title><polygon fill="#fff" stroke="transparent" points="-4 4 -4 -169.8 334 -169.8 334 4 -4 4"/><text x="165" y="-8.2" font-family="sans-serif" font-size="14" text-anchor="middle">dependencies</text><g id="clust1" class="cluster"><title>cluster_ChatModule</title><polygon fill="none" stroke="#000" stroke-dasharray="1 5" points="8 -32.8 8 -157.8 322 -157.8 322 -32.8 8 -32.8"/></g><g id="clust3" class="cluster"><title>cluster_ChatModule_imports</title><polygon fill="none" stroke="#000" points="156 -40.8 156 -92.8 314 -92.8 314 -40.8 156 -40.8"/></g><g id="clust6" class="cluster"><title>cluster_ChatModule_providers</title><polygon fill="none" stroke="#000" points="16 -40.8 16 -92.8 148 -92.8 148 -40.8 16 -40.8"/></g><g id="node1" class="node"><title>AuthenticationModule</title><polygon fill="#8dd3c7" stroke="#000" points="306.25 -84.8 303.25 -88.8 282.25 -88.8 279.25 -84.8 163.75 -84.8 163.75 -48.8 306.25 -48.8 306.25 -84.8"/><text x="235" y="-62.6" font-family="Times,serif" font-size="14" text-anchor="middle">AuthenticationModule</text></g><g id="node2" class="node"><title>ChatModule</title><polygon fill="#8dd3c7" stroke="#000" points="200.99 -149.8 197.99 -153.8 176.99 -153.8 173.99 -149.8 115.01 -149.8 115.01 -113.8 200.99 -113.8 200.99 -149.8"/><text x="158" y="-127.6" font-family="Times,serif" font-size="14" text-anchor="middle">ChatModule</text></g><g id="edge1" class="edge"><title>AuthenticationModule-&gt;ChatModule</title><path fill="none" stroke="#000" d="M182.31,-84.91C182.31,-84.91 182.31,-103.79 182.31,-103.79"/><polygon fill="#000" stroke="#000" points="178.81 -103.79 182.31 -113.79 185.81 -103.79 178.81 -103.79"/></g><g id="node3" class="node"><title>ChatService</title><ellipse cx="82" cy="-66.8" fill="#fdb462" stroke="#000" rx="58.46" ry="18"/><text x="82" y="-62.6" font-family="Times,serif" font-size="14" text-anchor="middle">ChatService</text></g><g id="edge2" class="edge"><title>ChatService-&gt;ChatModule</title><path fill="none" stroke="#000" d="M127.62,-78.12C127.62,-78.12 127.62,-103.74 127.62,-103.74"/><polygon fill="#000" stroke="#000" points="124.12 -103.74 127.62 -113.74 131.12 -103.74 124.12 -103.74"/></g></g></svg>