<svg xmlns="http://www.w3.org/2000/svg" xmlns:xlink="http://www.w3.org/1999/xlink" width="3220pt" height="232" viewBox="0 0 3220 173.8"><g id="graph0" class="graph" transform="scale(1 1) rotate(0) translate(4 169.8)"><title>dependencies</title><polygon fill="#fff" stroke="transparent" points="-4 4 -4 -169.8 3216 -169.8 3216 4 -4 4"/><text x="1606" y="-8.2" font-family="sans-serif" font-size="14" text-anchor="middle">dependencies</text><g id="clust1" class="cluster"><title>cluster_AppModule</title><polygon fill="none" stroke="#000" stroke-dasharray="1 5" points="8 -32.8 8 -157.8 3204 -157.8 3204 -32.8 8 -32.8"/></g><g id="clust3" class="cluster"><title>cluster_AppModule_imports</title><polygon fill="none" stroke="#000" points="16 -40.8 16 -92.8 3196 -92.8 3196 -40.8 16 -40.8"/></g><g id="node1" class="node"><title>AuthenticationModule</title><polygon fill="#8dd3c7" stroke="#000" points="3188.25 -84.8 3185.25 -88.8 3164.25 -88.8 3161.25 -84.8 3045.75 -84.8 3045.75 -48.8 3188.25 -48.8 3188.25 -84.8"/><text x="3117" y="-62.6" font-family="Times,serif" font-size="14" text-anchor="middle">AuthenticationModule</text></g><g id="node24" class="node"><title>AppModule</title><polygon fill="#8dd3c7" stroke="#000" points="1570.66 -149.8 1567.66 -153.8 1546.66 -153.8 1543.66 -149.8 1487.34 -149.8 1487.34 -113.8 1570.66 -113.8 1570.66 -149.8"/><text x="1529" y="-127.6" font-family="Times,serif" font-size="14" text-anchor="middle">AppModule</text></g><g id="edge1" class="edge"><title>AuthenticationModule-&gt;AppModule</title><path fill="none" stroke="#000" d="M3117,-84.95C3117,-108.56 3117,-146.8 3117,-146.8 3117,-146.8 1580.66,-146.8 1580.66,-146.8"/><polygon fill="#000" stroke="#000" points="1580.66 -143.3 1570.66 -146.8 1580.66 -150.3 1580.66 -143.3"/></g><g id="node2" class="node"><title>CategoriesModule</title><polygon fill="#8dd3c7" stroke="#000" points="3027.92 -84.8 3024.92 -88.8 3003.92 -88.8 3000.92 -84.8 2908.08 -84.8 2908.08 -48.8 3027.92 -48.8 3027.92 -84.8"/><text x="2968" y="-62.6" font-family="Times,serif" font-size="14" text-anchor="middle">CategoriesModule</text></g><g id="edge2" class="edge"><title>CategoriesModule-&gt;AppModule</title><path fill="none" stroke="#000" d="M2968,-84.89C2968,-107.93 2968,-144.8 2968,-144.8 2968,-144.8 1580.9,-144.8 1580.9,-144.8"/><polygon fill="#000" stroke="#000" points="1580.9 -141.3 1570.9 -144.8 1580.9 -148.3 1580.9 -141.3"/></g><g id="node3" class="node"><title>ChargeModule</title><polygon fill="#8dd3c7" stroke="#000" points="2889.98 -84.8 2886.98 -88.8 2865.98 -88.8 2862.98 -84.8 2790.02 -84.8 2790.02 -48.8 2889.98 -48.8 2889.98 -84.8"/><text x="2840" y="-62.6" font-family="Times,serif" font-size="14" text-anchor="middle">ChargeModule</text></g><g id="edge3" class="edge"><title>ChargeModule-&gt;AppModule</title><path fill="none" stroke="#000" d="M2840,-85.09C2840,-107.01 2840,-140.8 2840,-140.8 2840,-140.8 1580.77,-140.8 1580.77,-140.8"/><polygon fill="#000" stroke="#000" points="1580.77 -137.3 1570.77 -140.8 1580.77 -144.3 1580.77 -137.3"/></g><g id="node4" class="node"><title>ChatModule</title><polygon fill="#8dd3c7" stroke="#000" points="2771.99 -84.8 2768.99 -88.8 2747.99 -88.8 2744.99 -84.8 2686.01 -84.8 2686.01 -48.8 2771.99 -48.8 2771.99 -84.8"/><text x="2729" y="-62.6" font-family="Times,serif" font-size="14" text-anchor="middle">ChatModule</text></g><g id="edge4" class="edge"><title>ChatModule-&gt;AppModule</title><path fill="none" stroke="#000" d="M2729,-85.08C2729,-106.12 2729,-137.8 2729,-137.8 2729,-137.8 1581.01,-137.8 1581.01,-137.8"/><polygon fill="#000" stroke="#000" points="1581.01 -134.3 1571.01 -137.8 1581 -141.3 1581.01 -134.3"/></g><g id="node5" class="node"><title>CommentsModule</title><polygon fill="#8dd3c7" stroke="#000" points="2668.22 -84.8 2665.22 -88.8 2644.22 -88.8 2641.22 -84.8 2547.78 -84.8 2547.78 -48.8 2668.22 -48.8 2668.22 -84.8"/><text x="2608" y="-62.6" font-family="Times,serif" font-size="14" text-anchor="middle">CommentsModule</text></g><g id="edge5" class="edge"><title>CommentsModule-&gt;AppModule</title><path fill="none" stroke="#000" d="M2608,-85.02C2608,-105.17 2608,-134.8 2608,-134.8 2608,-134.8 1580.97,-134.8 1580.97,-134.8"/><polygon fill="#000" stroke="#000" points="1580.97 -131.3 1570.97 -134.8 1580.97 -138.3 1580.97 -131.3"/></g><g id="node6" class="node"><title>CreditCardsModule</title><polygon fill="#8dd3c7" stroke="#000" points="2529.7 -84.8 2526.7 -88.8 2505.7 -88.8 2502.7 -84.8 2402.3 -84.8 2402.3 -48.8 2529.7 -48.8 2529.7 -84.8"/><text x="2466" y="-62.6" font-family="Times,serif" font-size="14" text-anchor="middle">CreditCardsModule</text></g><g id="edge6" class="edge"><title>CreditCardsModule-&gt;AppModule</title><path fill="none" stroke="#000" d="M2466,-84.91C2466,-104.14 2466,-131.8 2466,-131.8 2466,-131.8 1580.78,-131.8 1580.78,-131.8"/><polygon fill="#000" stroke="#000" points="1580.78 -128.3 1570.78 -131.8 1580.78 -135.3 1580.78 -128.3"/></g><g id="node7" class="node"><title>DatabaseModule</title><polygon fill="#8dd3c7" stroke="#000" points="2384.35 -84.8 2381.35 -88.8 2360.35 -88.8 2357.35 -84.8 2273.65 -84.8 2273.65 -48.8 2384.35 -48.8 2384.35 -84.8"/><text x="2329" y="-62.6" font-family="Times,serif" font-size="14" text-anchor="middle">DatabaseModule</text></g><g id="edge7" class="edge"><title>DatabaseModule-&gt;AppModule</title><path fill="none" stroke="#000" d="M2329,-85.02C2329,-103.63 2329,-129.8 2329,-129.8 2329,-129.8 1580.89,-129.8 1580.89,-129.8"/><polygon fill="#000" stroke="#000" points="1580.89 -126.3 1570.89 -129.8 1580.89 -133.3 1580.89 -126.3"/></g><g id="node8" class="node"><title>EmailConfirmationModule</title><polygon fill="#8dd3c7" stroke="#000" points="2255.42 -84.8 2252.42 -88.8 2231.42 -88.8 2228.42 -84.8 2086.58 -84.8 2086.58 -48.8 2255.42 -48.8 2255.42 -84.8"/><text x="2171" y="-62.6" font-family="Times,serif" font-size="14" text-anchor="middle">EmailConfirmationModule</text></g><g id="edge8" class="edge"><title>EmailConfirmationModule-&gt;AppModule</title><path fill="none" stroke="#000" d="M2171,-84.82C2171,-102.17 2171,-125.8 2171,-125.8 2171,-125.8 1581.12,-125.8 1581.12,-125.8"/><polygon fill="#000" stroke="#000" points="1581.12 -122.3 1571.12 -125.8 1581.12 -129.3 1581.12 -122.3"/></g><g id="node9" class="node"><title>EmailSchedulingModule</title><polygon fill="#8dd3c7" stroke="#000" points="2068.98 -84.8 2065.98 -88.8 2044.98 -88.8 2041.98 -84.8 1913.02 -84.8 1913.02 -48.8 2068.98 -48.8 2068.98 -84.8"/><text x="1991" y="-62.6" font-family="Times,serif" font-size="14" text-anchor="middle">EmailSchedulingModule</text></g><g id="edge9" class="edge"><title>EmailSchedulingModule-&gt;AppModule</title><path fill="none" stroke="#000" d="M1991,-84.83C1991,-101.2 1991,-122.8 1991,-122.8 1991,-122.8 1580.81,-122.8 1580.81,-122.8"/><polygon fill="#000" stroke="#000" points="1580.81 -119.3 1570.81 -122.8 1580.81 -126.3 1580.81 -119.3"/></g><g id="node10" class="node"><title>GoogleAuthenticationModule</title><polygon fill="#8dd3c7" stroke="#000" points="1894.97 -84.8 1891.97 -88.8 1870.97 -88.8 1867.97 -84.8 1711.03 -84.8 1711.03 -48.8 1894.97 -48.8 1894.97 -84.8"/><text x="1803" y="-62.6" font-family="Times,serif" font-size="14" text-anchor="middle">GoogleAuthenticationModule</text></g><g id="edge10" class="edge"><title>GoogleAuthenticationModule-&gt;AppModule</title><path fill="none" stroke="#000" d="M1803,-85.04C1803,-100.37 1803,-119.8 1803,-119.8 1803,-119.8 1580.91,-119.8 1580.91,-119.8"/><polygon fill="#000" stroke="#000" points="1580.91 -116.3 1570.91 -119.8 1580.91 -123.3 1580.91 -116.3"/></g><g id="node11" class="node"><title>HealthModule</title><polygon fill="#8dd3c7" stroke="#000" points="1693.37 -84.8 1690.37 -88.8 1669.37 -88.8 1666.37 -84.8 1596.63 -84.8 1596.63 -48.8 1693.37 -48.8 1693.37 -84.8"/><text x="1645" y="-62.6" font-family="Times,serif" font-size="14" text-anchor="middle">HealthModule</text></g><g id="edge11" class="edge"><title>HealthModule-&gt;AppModule</title><path fill="none" stroke="#000" d="M1645,-84.85C1645,-99.17 1645,-116.8 1645,-116.8 1645,-116.8 1580.88,-116.8 1580.88,-116.8"/><polygon fill="#000" stroke="#000" points="1580.88 -113.3 1570.88 -116.8 1580.88 -120.3 1580.88 -113.3"/></g><g id="node12" class="node"><title>LoggerModule</title><polygon fill="#8dd3c7" stroke="#000" points="1578.98 -84.8 1575.98 -88.8 1554.98 -88.8 1551.98 -84.8 1479.02 -84.8 1479.02 -48.8 1578.98 -48.8 1578.98 -84.8"/><text x="1529" y="-62.6" font-family="Times,serif" font-size="14" text-anchor="middle">LoggerModule</text></g><g id="edge12" class="edge"><title>LoggerModule-&gt;AppModule</title><path fill="none" stroke="#000" d="M1529,-84.91C1529,-84.91 1529,-103.79 1529,-103.79"/><polygon fill="#000" stroke="#000" points="1525.5 -103.79 1529 -113.79 1532.5 -103.79 1525.5 -103.79"/></g><g id="node13" class="node"><title>OptimizeModule</title><polygon fill="#8dd3c7" stroke="#000" points="1460.65 -84.8 1457.65 -88.8 1436.65 -88.8 1433.65 -84.8 1349.35 -84.8 1349.35 -48.8 1460.65 -48.8 1460.65 -84.8"/><text x="1405" y="-62.6" font-family="Times,serif" font-size="14" text-anchor="middle">OptimizeModule</text></g><g id="edge13" class="edge"><title>OptimizeModule-&gt;AppModule</title><path fill="none" stroke="#000" d="M1405,-84.85C1405,-99.17 1405,-116.8 1405,-116.8 1405,-116.8 1477.02,-116.8 1477.02,-116.8"/><polygon fill="#000" stroke="#000" points="1477.02 -120.3 1487.02 -116.8 1477.02 -113.3 1477.02 -120.3"/></g><g id="node14" class="node"><title>PostsModule</title><polygon fill="#8dd3c7" stroke="#000" points="1331.61 -84.8 1328.61 -88.8 1307.61 -88.8 1304.61 -84.8 1242.39 -84.8 1242.39 -48.8 1331.61 -48.8 1331.61 -84.8"/><text x="1287" y="-62.6" font-family="Times,serif" font-size="14" text-anchor="middle">PostsModule</text></g><g id="edge14" class="edge"><title>PostsModule-&gt;AppModule</title><path fill="none" stroke="#000" d="M1287,-85.04C1287,-100.37 1287,-119.8 1287,-119.8 1287,-119.8 1477.12,-119.8 1477.12,-119.8"/><polygon fill="#000" stroke="#000" points="1477.12 -123.3 1487.12 -119.8 1477.12 -116.3 1477.12 -123.3"/></g><g id="node15" class="node"><title>ProductCategoriesModule</title><polygon fill="#8dd3c7" stroke="#000" points="1224.47 -84.8 1221.47 -88.8 1200.47 -88.8 1197.47 -84.8 1061.53 -84.8 1061.53 -48.8 1224.47 -48.8 1224.47 -84.8"/><text x="1143" y="-62.6" font-family="Times,serif" font-size="14" text-anchor="middle">ProductCategoriesModule</text></g><g id="edge15" class="edge"><title>ProductCategoriesModule-&gt;AppModule</title><path fill="none" stroke="#000" d="M1143,-84.83C1143,-101.2 1143,-122.8 1143,-122.8 1143,-122.8 1477.32,-122.8 1477.32,-122.8"/><polygon fill="#000" stroke="#000" points="1477.32 -126.3 1487.32 -122.8 1477.32 -119.3 1477.32 -126.3"/></g><g id="node16" class="node"><title>ProductsModule</title><polygon fill="#8dd3c7" stroke="#000" points="1043.04 -84.8 1040.04 -88.8 1019.04 -88.8 1016.04 -84.8 934.96 -84.8 934.96 -48.8 1043.04 -48.8 1043.04 -84.8"/><text x="989" y="-62.6" font-family="Times,serif" font-size="14" text-anchor="middle">ProductsModule</text></g><g id="edge16" class="edge"><title>ProductsModule-&gt;AppModule</title><path fill="none" stroke="#000" d="M989,-84.82C989,-102.17 989,-125.8 989,-125.8 989,-125.8 1477.08,-125.8 1477.08,-125.8"/><polygon fill="#000" stroke="#000" points="1477.08 -129.3 1487.08 -125.8 1477.08 -122.3 1477.08 -129.3"/></g><g id="node17" class="node"><title>PubSubModule</title><polygon fill="#8dd3c7" stroke="#000" points="916.62 -84.8 913.62 -88.8 892.62 -88.8 889.62 -84.8 813.38 -84.8 813.38 -48.8 916.62 -48.8 916.62 -84.8"/><text x="865" y="-62.6" font-family="Times,serif" font-size="14" text-anchor="middle">PubSubModule</text></g><g id="edge17" class="edge"><title>PubSubModule-&gt;AppModule</title><path fill="none" stroke="#000" d="M865,-85.02C865,-103.63 865,-129.8 865,-129.8 865,-129.8 1477.21,-129.8 1477.21,-129.8"/><polygon fill="#000" stroke="#000" points="1477.21 -133.3 1487.21 -129.8 1477.21 -126.3 1477.21 -133.3"/></g><g id="node18" class="node"><title>SearchModule</title><polygon fill="#8dd3c7" stroke="#000" points="795.64 -84.8 792.64 -88.8 771.64 -88.8 768.64 -84.8 698.36 -84.8 698.36 -48.8 795.64 -48.8 795.64 -84.8"/><text x="747" y="-62.6" font-family="Times,serif" font-size="14" text-anchor="middle">SearchModule</text></g><g id="edge18" class="edge"><title>SearchModule-&gt;AppModule</title><path fill="none" stroke="#000" d="M747,-84.91C747,-104.14 747,-131.8 747,-131.8 747,-131.8 1477.23,-131.8 1477.23,-131.8"/><polygon fill="#000" stroke="#000" points="1477.23 -135.3 1487.23 -131.8 1477.23 -128.3 1477.23 -135.3"/></g><g id="node19" class="node"><title>SmsModule</title><polygon fill="#8dd3c7" stroke="#000" points="679.67 -84.8 676.67 -88.8 655.67 -88.8 652.67 -84.8 596.33 -84.8 596.33 -48.8 679.67 -48.8 679.67 -84.8"/><text x="638" y="-62.6" font-family="Times,serif" font-size="14" text-anchor="middle">SmsModule</text></g><g id="edge19" class="edge"><title>SmsModule-&gt;AppModule</title><path fill="none" stroke="#000" d="M638,-85.02C638,-105.17 638,-134.8 638,-134.8 638,-134.8 1477.22,-134.8 1477.22,-134.8"/><polygon fill="#000" stroke="#000" points="1477.22 -138.3 1487.22 -134.8 1477.22 -131.3 1477.22 -138.3"/></g><g id="node20" class="node"><title>StripeWebhookModule</title><polygon fill="#8dd3c7" stroke="#000" points="577.92 -84.8 574.92 -88.8 553.92 -88.8 550.92 -84.8 430.08 -84.8 430.08 -48.8 577.92 -48.8 577.92 -84.8"/><text x="504" y="-62.6" font-family="Times,serif" font-size="14" text-anchor="middle">StripeWebhookModule</text></g><g id="edge20" class="edge"><title>StripeWebhookModule-&gt;AppModule</title><path fill="none" stroke="#000" d="M504,-85.08C504,-106.12 504,-137.8 504,-137.8 504,-137.8 1477.23,-137.8 1477.23,-137.8"/><polygon fill="#000" stroke="#000" points="1477.23 -141.3 1487.23 -137.8 1477.23 -134.3 1477.23 -141.3"/></g><g id="node21" class="node"><title>SubscribersModule</title><polygon fill="#8dd3c7" stroke="#000" points="412.36 -84.8 409.36 -88.8 388.36 -88.8 385.36 -84.8 287.64 -84.8 287.64 -48.8 412.36 -48.8 412.36 -84.8"/><text x="350" y="-62.6" font-family="Times,serif" font-size="14" text-anchor="middle">SubscribersModule</text></g><g id="edge21" class="edge"><title>SubscribersModule-&gt;AppModule</title><path fill="none" stroke="#000" d="M350,-85.09C350,-107.01 350,-140.8 350,-140.8 350,-140.8 1477.04,-140.8 1477.04,-140.8"/><polygon fill="#000" stroke="#000" points="1477.04 -144.3 1487.04 -140.8 1477.04 -137.3 1477.04 -144.3"/></g><g id="node22" class="node"><title>SubscriptionsModule</title><polygon fill="#8dd3c7" stroke="#000" points="269.77 -84.8 266.77 -88.8 245.77 -88.8 242.77 -84.8 134.23 -84.8 134.23 -48.8 269.77 -48.8 269.77 -84.8"/><text x="202" y="-62.6" font-family="Times,serif" font-size="14" text-anchor="middle">SubscriptionsModule</text></g><g id="edge22" class="edge"><title>SubscriptionsModule-&gt;AppModule</title><path fill="none" stroke="#000" d="M202,-84.89C202,-107.93 202,-144.8 202,-144.8 202,-144.8 1477.09,-144.8 1477.09,-144.8"/><polygon fill="#000" stroke="#000" points="1477.09 -148.3 1487.09 -144.8 1477.09 -141.3 1477.09 -148.3"/></g><g id="node23" class="node"><title>UsersModule</title><polygon fill="#8dd3c7" stroke="#000" points="115.92 -84.8 112.92 -88.8 91.92 -88.8 88.92 -84.8 24.08 -84.8 24.08 -48.8 115.92 -48.8 115.92 -84.8"/><text x="70" y="-62.6" font-family="Times,serif" font-size="14" text-anchor="middle">UsersModule</text></g><g id="edge23" class="edge"><title>UsersModule-&gt;AppModule</title><path fill="none" stroke="#000" d="M70,-84.95C70,-108.56 70,-146.8 70,-146.8 70,-146.8 1477.3,-146.8 1477.3,-146.8"/><polygon fill="#000" stroke="#000" points="1477.3 -150.3 1487.3 -146.8 1477.3 -143.3 1477.3 -150.3"/></g></g></svg>