<svg xmlns="http://www.w3.org/2000/svg" xmlns:xlink="http://www.w3.org/1999/xlink" width="424pt" height="232" viewBox="0 0 424 173.8"><g id="graph0" class="graph" transform="scale(1 1) rotate(0) translate(4 169.8)"><title>dependencies</title><polygon fill="#fff" stroke="transparent" points="-4 4 -4 -169.8 420 -169.8 420 4 -4 4"/><text x="208" y="-8.2" font-family="sans-serif" font-size="14" text-anchor="middle">dependencies</text><g id="clust1" class="cluster"><title>cluster_HealthModule</title><polygon fill="none" stroke="#000" stroke-dasharray="1 5" points="8 -32.8 8 -157.8 408 -157.8 408 -32.8 8 -32.8"/></g><g id="clust6" class="cluster"><title>cluster_HealthModule_providers</title><polygon fill="none" stroke="#000" points="138 -40.8 138 -92.8 400 -92.8 400 -40.8 138 -40.8"/></g><g id="clust3" class="cluster"><title>cluster_HealthModule_imports</title><polygon fill="none" stroke="#000" points="16 -40.8 16 -92.8 130 -92.8 130 -40.8 16 -40.8"/></g><g id="node1" class="node"><title>SearchModule</title><polygon fill="#8dd3c7" stroke="#000" points="121.64 -84.8 118.64 -88.8 97.64 -88.8 94.64 -84.8 24.36 -84.8 24.36 -48.8 121.64 -48.8 121.64 -84.8"/><text x="73" y="-62.6" font-family="Times,serif" font-size="14" text-anchor="middle">SearchModule</text></g><g id="node2" class="node"><title>HealthModule</title><polygon fill="#8dd3c7" stroke="#000" points="219.37 -149.8 216.37 -153.8 195.37 -153.8 192.37 -149.8 122.63 -149.8 122.63 -113.8 219.37 -113.8 219.37 -149.8"/><text x="171" y="-127.6" font-family="Times,serif" font-size="14" text-anchor="middle">HealthModule</text></g><g id="edge1" class="edge"><title>SearchModule-&gt;HealthModule</title><path fill="none" stroke="#000" d="M121.76,-66.8C129.22,-66.8 134.5,-66.8 134.5,-66.8 134.5,-66.8 134.5,-103.69 134.5,-103.69"/><polygon fill="#000" stroke="#000" points="131 -103.69 134.5 -113.69 138 -103.69 131 -103.69"/></g><g id="node3" class="node"><title>ElasticsearchHealthIndicator</title><ellipse cx="269" cy="-66.8" fill="#fdb462" stroke="#000" rx="122.64" ry="18"/><text x="269" y="-62.6" font-family="Times,serif" font-size="14" text-anchor="middle">ElasticsearchHealthIndicator</text></g><g id="edge2" class="edge"><title>ElasticsearchHealthIndicator-&gt;HealthModule</title><path fill="none" stroke="#000" d="M182.93,-79.64C182.93,-79.64 182.93,-103.32 182.93,-103.32"/><polygon fill="#000" stroke="#000" points="179.43 -103.32 182.93 -113.32 186.43 -103.32 179.43 -103.32"/></g></g></svg>