<svg xmlns="http://www.w3.org/2000/svg" xmlns:xlink="http://www.w3.org/1999/xlink" width="5653pt" height="478pt" viewBox="0 0 5653 477.8"><g id="graph0" class="graph" transform="scale(1 1) rotate(0) translate(4 473.8)"><title>dependencies</title><polygon fill="#fff" stroke="transparent" points="-4 4 -4 -473.8 5649 -473.8 5649 4 -4 4"/><text x="2822.5" y="-8.2" font-family="sans-serif" font-size="14" text-anchor="middle">dependencies</text><g id="clust1" class="cluster"><title>cluster_AppModule</title><polygon fill="none" stroke="#000" stroke-dasharray="1 5" points="1445 -176.8 1445 -461.8 3592 -461.8 3592 -176.8 1445 -176.8"/></g><g id="clust3" class="cluster"><title>cluster_AppModule_imports</title><polygon fill="none" stroke="#000" points="1453 -184.8 1453 -453.8 3492 -453.8 3492 -184.8 1453 -184.8"/></g><g id="clust7" class="cluster"><title>cluster_AuthenticationModule</title><polygon fill="none" stroke="#000" stroke-dasharray="1 5" points="8 -252.8 8 -320.8 1437 -320.8 1437 -252.8 8 -252.8"/></g><g id="clust10" class="cluster"><title>cluster_AuthenticationModule_exports</title><polygon fill="none" stroke="#000" points="1269 -260.8 1269 -312.8 1429 -312.8 1429 -260.8 1269 -260.8"/></g><g id="clust12" class="cluster"><title>cluster_AuthenticationModule_providers</title><polygon fill="none" stroke="#000" points="16 -260.8 16 -312.8 1261 -312.8 1261 -260.8 16 -260.8"/></g><g id="clust13" class="cluster"><title>cluster_CategoriesModule</title><polygon fill="none" stroke="#000" stroke-dasharray="1 5" points="1435 -100.8 1435 -168.8 1629 -168.8 1629 -100.8 1435 -100.8"/></g><g id="clust18" class="cluster"><title>cluster_CategoriesModule_providers</title><polygon fill="none" stroke="#000" points="1443 -108.8 1443 -160.8 1621 -160.8 1621 -108.8 1443 -108.8"/></g><g id="clust19" class="cluster"><title>cluster_ChargeModule</title><polygon fill="none" stroke="#000" stroke-dasharray="1 5" points="3354 -100.8 3354 -168.8 3478 -168.8 3478 -100.8 3354 -100.8"/></g><g id="clust21" class="cluster"><title>cluster_ChargeModule_imports</title><polygon fill="none" stroke="#000" points="3362 -108.8 3362 -160.8 3470 -160.8 3470 -108.8 3362 -108.8"/></g><g id="clust25" class="cluster"><title>cluster_ChatModule</title><polygon fill="none" stroke="#000" stroke-dasharray="1 5" points="1289 -328.8 1289 -396.8 1437 -396.8 1437 -328.8 1289 -328.8"/></g><g id="clust30" class="cluster"><title>cluster_ChatModule_providers</title><polygon fill="none" stroke="#000" points="1297 -336.8 1297 -388.8 1429 -388.8 1429 -336.8 1297 -336.8"/></g><g id="clust49" class="cluster"><title>cluster_EmailConfirmationModule</title><polygon fill="none" stroke="#000" stroke-dasharray="1 5" points="4042 -176.8 4042 -244.8 4614 -244.8 4614 -176.8 4042 -176.8"/></g><g id="clust51" class="cluster"><title>cluster_EmailConfirmationModule_imports</title><polygon fill="none" stroke="#000" points="4498 -184.8 4498 -236.8 4606 -236.8 4606 -184.8 4498 -184.8"/></g><g id="clust52" class="cluster"><title>cluster_EmailConfirmationModule_exports</title><polygon fill="none" stroke="#000" points="4304 -184.8 4304 -236.8 4490 -236.8 4490 -184.8 4304 -184.8"/></g><g id="clust54" class="cluster"><title>cluster_EmailConfirmationModule_providers</title><polygon fill="none" stroke="#000" points="4050 -184.8 4050 -236.8 4296 -236.8 4296 -184.8 4050 -184.8"/></g><g id="clust55" class="cluster"><title>cluster_EmailModule</title><polygon fill="none" stroke="#000" stroke-dasharray="1 5" points="4406 -100.8 4406 -168.8 4682 -168.8 4682 -100.8 4406 -100.8"/></g><g id="clust58" class="cluster"><title>cluster_EmailModule_exports</title><polygon fill="none" stroke="#000" points="4564 -108.8 4564 -160.8 4674 -160.8 4674 -108.8 4564 -108.8"/></g><g id="clust60" class="cluster"><title>cluster_EmailModule_providers</title><polygon fill="none" stroke="#000" points="4414 -108.8 4414 -160.8 4556 -160.8 4556 -108.8 4414 -108.8"/></g><g id="clust61" class="cluster"><title>cluster_EmailSchedulingModule</title><polygon fill="none" stroke="#000" stroke-dasharray="1 5" points="1637 -100.8 1637 -168.8 1883 -168.8 1883 -100.8 1637 -100.8"/></g><g id="clust66" class="cluster"><title>cluster_EmailSchedulingModule_providers</title><polygon fill="none" stroke="#000" points="1645 -108.8 1645 -160.8 1875 -160.8 1875 -108.8 1645 -108.8"/></g><g id="clust67" class="cluster"><title>cluster_FilesModule</title><polygon fill="none" stroke="#000" stroke-dasharray="1 5" points="3884 -32.8 3884 -244.8 4034 -244.8 4034 -32.8 3884 -32.8"/></g><g id="clust70" class="cluster"><title>cluster_FilesModule_exports</title><polygon fill="none" stroke="#000" points="3899 -184.8 3899 -236.8 4003 -236.8 4003 -184.8 3899 -184.8"/></g><g id="clust72" class="cluster"><title>cluster_FilesModule_providers</title><polygon fill="none" stroke="#000" points="3892 -40.8 3892 -92.8 4026 -92.8 4026 -40.8 3892 -40.8"/></g><g id="clust73" class="cluster"><title>cluster_GoogleAuthenticationModule</title><polygon fill="none" stroke="#000" stroke-dasharray="1 5" points="3864 -328.8 3864 -396.8 4148 -396.8 4148 -328.8 3864 -328.8"/></g><g id="clust78" class="cluster"><title>cluster_GoogleAuthenticationModule_providers</title><polygon fill="none" stroke="#000" points="3872 -336.8 3872 -388.8 4140 -388.8 4140 -336.8 3872 -336.8"/></g><g id="clust79" class="cluster"><title>cluster_HealthModule</title><polygon fill="none" stroke="#000" stroke-dasharray="1 5" points="4622 -176.8 4622 -244.8 4900 -244.8 4900 -176.8 4622 -176.8"/></g><g id="clust84" class="cluster"><title>cluster_HealthModule_providers</title><polygon fill="none" stroke="#000" points="4630 -184.8 4630 -236.8 4892 -236.8 4892 -184.8 4630 -184.8"/></g><g id="clust85" class="cluster"><title>cluster_LoggerModule</title><polygon fill="none" stroke="#000" stroke-dasharray="1 5" points="2567 -100.8 2567 -168.8 3001 -168.8 3001 -100.8 2567 -100.8"/></g><g id="clust88" class="cluster"><title>cluster_LoggerModule_exports</title><polygon fill="none" stroke="#000" points="2873 -108.8 2873 -160.8 2993 -160.8 2993 -108.8 2873 -108.8"/></g><g id="clust90" class="cluster"><title>cluster_LoggerModule_providers</title><polygon fill="none" stroke="#000" points="2575 -108.8 2575 -160.8 2865 -160.8 2865 -108.8 2575 -108.8"/></g><g id="clust97" class="cluster"><title>cluster_PostsModule</title><polygon fill="none" stroke="#000" stroke-dasharray="1 5" points="4908 -176.8 4908 -244.8 5395 -244.8 5395 -176.8 4908 -176.8"/></g><g id="clust102" class="cluster"><title>cluster_PostsModule_providers</title><polygon fill="none" stroke="#000" points="4916 -184.8 4916 -236.8 5387 -236.8 5387 -184.8 4916 -184.8"/></g><g id="clust103" class="cluster"><title>cluster_ProductCategoriesModule</title><polygon fill="none" stroke="#000" stroke-dasharray="1 5" points="1891 -100.8 1891 -168.8 2145 -168.8 2145 -100.8 1891 -100.8"/></g><g id="clust108" class="cluster"><title>cluster_ProductCategoriesModule_providers</title><polygon fill="none" stroke="#000" points="1899 -108.8 1899 -160.8 2137 -160.8 2137 -108.8 1899 -108.8"/></g><g id="clust109" class="cluster"><title>cluster_ProductsModule</title><polygon fill="none" stroke="#000" stroke-dasharray="1 5" points="2153 -100.8 2153 -168.8 2333 -168.8 2333 -100.8 2153 -100.8"/></g><g id="clust114" class="cluster"><title>cluster_ProductsModule_providers</title><polygon fill="none" stroke="#000" points="2161 -108.8 2161 -160.8 2325 -160.8 2325 -108.8 2161 -108.8"/></g><g id="clust127" class="cluster"><title>cluster_SmsModule</title><polygon fill="none" stroke="#000" stroke-dasharray="1 5" points="3600 -328.8 3600 -396.8 3856 -396.8 3856 -328.8 3600 -328.8"/></g><g id="clust130" class="cluster"><title>cluster_SmsModule_exports</title><polygon fill="none" stroke="#000" points="3746 -336.8 3746 -388.8 3848 -388.8 3848 -336.8 3746 -336.8"/></g><g id="clust132" class="cluster"><title>cluster_SmsModule_providers</title><polygon fill="none" stroke="#000" points="3608 -336.8 3608 -388.8 3738 -388.8 3738 -336.8 3608 -336.8"/></g><g id="clust133" class="cluster"><title>cluster_StripeModule</title><polygon fill="none" stroke="#000" stroke-dasharray="1 5" points="3600 -176.8 3600 -244.8 3876 -244.8 3876 -176.8 3600 -176.8"/></g><g id="clust136" class="cluster"><title>cluster_StripeModule_exports</title><polygon fill="none" stroke="#000" points="3758 -184.8 3758 -236.8 3868 -236.8 3868 -184.8 3758 -184.8"/></g><g id="clust138" class="cluster"><title>cluster_StripeModule_providers</title><polygon fill="none" stroke="#000" points="3608 -184.8 3608 -236.8 3750 -236.8 3750 -184.8 3608 -184.8"/></g><g id="clust139" class="cluster"><title>cluster_StripeWebhookModule</title><polygon fill="none" stroke="#000" stroke-dasharray="1 5" points="5403 -176.8 5403 -244.8 5637 -244.8 5637 -176.8 5403 -176.8"/></g><g id="clust144" class="cluster"><title>cluster_StripeWebhookModule_providers</title><polygon fill="none" stroke="#000" points="5411 -184.8 5411 -236.8 5629 -236.8 5629 -184.8 5411 -184.8"/></g><g id="clust151" class="cluster"><title>cluster_SubscriptionsModule</title><polygon fill="none" stroke="#000" stroke-dasharray="1 5" points="2341 -100.8 2341 -168.8 2559 -168.8 2559 -100.8 2341 -100.8"/></g><g id="clust156" class="cluster"><title>cluster_SubscriptionsModule_providers</title><polygon fill="none" stroke="#000" points="2349 -108.8 2349 -160.8 2551 -160.8 2551 -108.8 2349 -108.8"/></g><g id="clust157" class="cluster"><title>cluster_UsersModule</title><polygon fill="none" stroke="#000" stroke-dasharray="1 5" points="3009 -100.8 3009 -168.8 3283 -168.8 3283 -100.8 3009 -100.8"/></g><g id="clust160" class="cluster"><title>cluster_UsersModule_exports</title><polygon fill="none" stroke="#000" points="3165 -108.8 3165 -160.8 3275 -160.8 3275 -108.8 3165 -108.8"/></g><g id="clust162" class="cluster"><title>cluster_UsersModule_providers</title><polygon fill="none" stroke="#000" points="3017 -108.8 3017 -160.8 3157 -160.8 3157 -108.8 3017 -108.8"/></g><g id="node1" class="node"><title>AuthenticationModule</title><polygon fill="#8dd3c7" stroke="#000" points="1603.25 -380.8 1600.25 -384.8 1579.25 -384.8 1576.25 -380.8 1460.75 -380.8 1460.75 -344.8 1603.25 -344.8 1603.25 -380.8"/><text x="1532" y="-358.6" font-family="Times,serif" font-size="14" text-anchor="middle">AuthenticationModule</text></g><g id="node4" class="node"><title>ChatModule</title><polygon fill="#8dd3c7" stroke="#000" points="1574.99 -445.8 1571.99 -449.8 1550.99 -449.8 1547.99 -445.8 1489.01 -445.8 1489.01 -409.8 1574.99 -409.8 1574.99 -445.8"/><text x="1532" y="-423.6" font-family="Times,serif" font-size="14" text-anchor="middle">ChatModule</text></g><g id="edge35" class="edge"><title>AuthenticationModule-&gt;ChatModule</title><path fill="none" stroke="#000" d="M1517.67,-380.91C1517.67,-380.91 1517.67,-399.79 1517.67,-399.79"/><polygon fill="#000" stroke="#000" points="1514.17 -399.79 1517.67 -409.79 1521.17 -399.79 1514.17 -399.79"/></g><g id="node10" class="node"><title>GoogleAuthenticationModule</title><polygon fill="#8dd3c7" stroke="#000" points="2628.97 -445.8 2625.97 -449.8 2604.97 -449.8 2601.97 -445.8 2445.03 -445.8 2445.03 -409.8 2628.97 -409.8 2628.97 -445.8"/><text x="2537" y="-423.6" font-family="Times,serif" font-size="14" text-anchor="middle">GoogleAuthenticationModule</text></g><g id="edge48" class="edge"><title>AuthenticationModule-&gt;GoogleAuthenticationModule</title><path fill="none" stroke="#000" d="M1589.19,-380.91C1589.19,-400.14 1589.19,-427.8 1589.19,-427.8 1589.19,-427.8 2434.83,-427.8 2434.83,-427.8"/><polygon fill="#000" stroke="#000" points="2434.83 -431.3 2444.83 -427.8 2434.83 -424.3 2434.83 -431.3"/></g><g id="node24" class="node"><title>AppModule</title><polygon fill="#8dd3c7" stroke="#000" points="3583.66 -445.8 3580.66 -449.8 3559.66 -449.8 3556.66 -445.8 3500.34 -445.8 3500.34 -409.8 3583.66 -409.8 3583.66 -445.8"/><text x="3542" y="-423.6" font-family="Times,serif" font-size="14" text-anchor="middle">AppModule</text></g><g id="edge1" class="edge"><title>AuthenticationModule-&gt;AppModule</title><path fill="none" stroke="#000" d="M1603.32,-368.8C1957.61,-368.8 3511.33,-368.8 3511.33,-368.8 3511.33,-368.8 3511.33,-399.78 3511.33,-399.78"/><polygon fill="#000" stroke="#000" points="3507.83 -399.78 3511.33 -409.78 3514.83 -399.78 3507.83 -399.78"/></g><g id="node25" class="node"><title>AuthenticationService</title><polygon fill="#fb8072" stroke="#000" points="1421.18 -304.8 1276.82 -304.8 1276.82 -268.8 1421.18 -268.8 1421.18 -304.8"/><text x="1349" y="-282.6" font-family="Times,serif" font-size="14" text-anchor="middle">AuthenticationService</text></g><g id="edge26" class="edge"><title>AuthenticationModule-&gt;AuthenticationService</title><path fill="none" stroke="#000" stroke-dasharray="5 2" d="M1503.95,-344.49C1503.95,-324.65 1503.95,-295.8 1503.95,-295.8 1503.95,-295.8 1431.49,-295.8 1431.49,-295.8"/><polygon fill="#000" stroke="#000" points="1431.49 -292.3 1421.49 -295.8 1431.49 -299.3 1431.49 -292.3"/></g><g id="node2" class="node"><title>CategoriesModule</title><polygon fill="#8dd3c7" stroke="#000" points="1806.92 -228.8 1803.92 -232.8 1782.92 -232.8 1779.92 -228.8 1687.08 -228.8 1687.08 -192.8 1806.92 -192.8 1806.92 -228.8"/><text x="1747" y="-206.6" font-family="Times,serif" font-size="14" text-anchor="middle">CategoriesModule</text></g><g id="edge2" class="edge"><title>CategoriesModule-&gt;AppModule</title><path fill="none" stroke="#000" d="M1747,-228.86C1747,-240.24 1747,-252.8 1747,-252.8 1747,-252.8 3533.63,-252.8 3533.63,-252.8 3533.63,-252.8 3533.63,-399.73 3533.63,-399.73"/><polygon fill="#000" stroke="#000" points="3530.13 -399.73 3533.63 -409.73 3537.13 -399.73 3530.13 -399.73"/></g><g id="node3" class="node"><title>ChargeModule</title><polygon fill="#8dd3c7" stroke="#000" points="1924.98 -228.8 1921.98 -232.8 1900.98 -232.8 1897.98 -228.8 1825.02 -228.8 1825.02 -192.8 1924.98 -192.8 1924.98 -228.8"/><text x="1875" y="-206.6" font-family="Times,serif" font-size="14" text-anchor="middle">ChargeModule</text></g><g id="edge3" class="edge"><title>ChargeModule-&gt;AppModule</title><path fill="none" stroke="#000" d="M1875,-228.93C1875,-239.51 1875,-250.8 1875,-250.8 1875,-250.8 3539.21,-250.8 3539.21,-250.8 3539.21,-250.8 3539.21,-399.52 3539.21,-399.52"/><polygon fill="#000" stroke="#000" points="3535.71 -399.52 3539.21 -409.52 3542.71 -399.52 3535.71 -399.52"/></g><g id="edge4" class="edge"><title>ChatModule-&gt;AppModule</title><path fill="none" stroke="#000" d="M1546.33,-409.56C1546.33,-402.37 1546.33,-395.8 1546.33,-395.8 1546.33,-395.8 3505.75,-395.8 3505.75,-395.8 3505.75,-395.8 3505.75,-399.56 3505.75,-399.56"/><polygon fill="#000" stroke="#000" points="3502.25 -399.56 3505.75 -409.56 3509.25 -399.56 3502.25 -399.56"/></g><g id="node5" class="node"><title>CommentsModule</title><polygon fill="#8dd3c7" stroke="#000" points="2063.22 -228.8 2060.22 -232.8 2039.22 -232.8 2036.22 -228.8 1942.78 -228.8 1942.78 -192.8 2063.22 -192.8 2063.22 -228.8"/><text x="2003" y="-206.6" font-family="Times,serif" font-size="14" text-anchor="middle">CommentsModule</text></g><g id="edge5" class="edge"><title>CommentsModule-&gt;AppModule</title><path fill="none" stroke="#000" d="M2003,-228.91C2003,-238.7 2003,-248.8 2003,-248.8 2003,-248.8 3544.79,-248.8 3544.79,-248.8 3544.79,-248.8 3544.79,-399.65 3544.79,-399.65"/><polygon fill="#000" stroke="#000" points="3541.29 -399.65 3544.79 -409.65 3548.29 -399.65 3541.29 -399.65"/></g><g id="node6" class="node"><title>CreditCardsModule</title><polygon fill="#8dd3c7" stroke="#000" points="2208.7 -228.8 2205.7 -232.8 2184.7 -232.8 2181.7 -228.8 2081.3 -228.8 2081.3 -192.8 2208.7 -192.8 2208.7 -228.8"/><text x="2145" y="-206.6" font-family="Times,serif" font-size="14" text-anchor="middle">CreditCardsModule</text></g><g id="edge6" class="edge"><title>CreditCardsModule-&gt;AppModule</title><path fill="none" stroke="#000" d="M2145,-228.87C2145,-238.26 2145,-247.8 2145,-247.8 2145,-247.8 3550.37,-247.8 3550.37,-247.8 3550.37,-247.8 3550.37,-399.55 3550.37,-399.55"/><polygon fill="#000" stroke="#000" points="3546.87 -399.55 3550.37 -409.55 3553.87 -399.55 3546.87 -399.55"/></g><g id="node7" class="node"><title>DatabaseModule</title><polygon fill="#8dd3c7" stroke="#000" points="2337.35 -228.8 2334.35 -232.8 2313.35 -232.8 2310.35 -228.8 2226.65 -228.8 2226.65 -192.8 2337.35 -192.8 2337.35 -228.8"/><text x="2282" y="-206.6" font-family="Times,serif" font-size="14" text-anchor="middle">DatabaseModule</text></g><g id="edge7" class="edge"><title>DatabaseModule-&gt;AppModule</title><path fill="none" stroke="#000" d="M2282,-229.12C2282,-237.59 2282,-245.8 2282,-245.8 2282,-245.8 3555.94,-245.8 3555.94,-245.8 3555.94,-245.8 3555.94,-399.68 3555.94,-399.68"/><polygon fill="#000" stroke="#000" points="3552.44 -399.68 3555.94 -409.68 3559.44 -399.68 3552.44 -399.68"/></g><g id="node8" class="node"><title>EmailConfirmationModule</title><polygon fill="#8dd3c7" stroke="#000" points="2794.42 -304.8 2791.42 -308.8 2770.42 -308.8 2767.42 -304.8 2625.58 -304.8 2625.58 -268.8 2794.42 -268.8 2794.42 -304.8"/><text x="2710" y="-282.6" font-family="Times,serif" font-size="14" text-anchor="middle">EmailConfirmationModule</text></g><g id="edge24" class="edge"><title>EmailConfirmationModule-&gt;AuthenticationModule</title><path fill="none" stroke="#000" d="M2625.61,-286.8C2364.51,-286.8 1587.28,-286.8 1587.28,-286.8 1587.28,-286.8 1587.28,-334.79 1587.28,-334.79"/><polygon fill="#000" stroke="#000" points="1583.78 -334.79 1587.28 -344.79 1590.78 -334.79 1583.78 -334.79"/></g><g id="edge8" class="edge"><title>EmailConfirmationModule-&gt;AppModule</title><path fill="none" stroke="#000" d="M2711.6,-304.83C2711.6,-345.1 2711.6,-438.8 2711.6,-438.8 2711.6,-438.8 3490.25,-438.8 3490.25,-438.8"/><polygon fill="#000" stroke="#000" points="3490.25 -442.3 3500.25 -438.8 3490.25 -435.3 3490.25 -442.3"/></g><g id="node36" class="node"><title>EmailConfirmationService</title><polygon fill="#fb8072" stroke="#000" points="4482.35 -228.8 4311.65 -228.8 4311.65 -192.8 4482.35 -192.8 4482.35 -228.8"/><text x="4397" y="-206.6" font-family="Times,serif" font-size="14" text-anchor="middle">EmailConfirmationService</text></g><g id="edge40" class="edge"><title>EmailConfirmationModule-&gt;EmailConfirmationService</title><path fill="none" stroke="#000" stroke-dasharray="5 2" d="M2767.67,-268.74C2767.67,-240.93 2767.67,-190.8 2767.67,-190.8 2767.67,-190.8 4366.88,-190.8 4366.88,-190.8 4366.88,-190.8 4366.88,-190.98 4366.88,-190.98"/><polygon fill="#000" stroke="#000" points="4363.38 -182.65 4366.88 -192.65 4370.38 -182.65 4363.38 -182.65"/></g><g id="node9" class="node"><title>EmailSchedulingModule</title><polygon fill="#8dd3c7" stroke="#000" points="2510.98 -228.8 2507.98 -232.8 2486.98 -232.8 2483.98 -228.8 2355.02 -228.8 2355.02 -192.8 2510.98 -192.8 2510.98 -228.8"/><text x="2433" y="-206.6" font-family="Times,serif" font-size="14" text-anchor="middle">EmailSchedulingModule</text></g><g id="edge9" class="edge"><title>EmailSchedulingModule-&gt;AppModule</title><path fill="none" stroke="#000" d="M2494.5,-228.84C2494.5,-236.55 2494.5,-243.8 2494.5,-243.8 2494.5,-243.8 3561.52,-243.8 3561.52,-243.8 3561.52,-243.8 3561.52,-399.48 3561.52,-399.48"/><polygon fill="#000" stroke="#000" points="3558.02 -399.48 3561.52 -409.48 3565.02 -399.48 3558.02 -399.48"/></g><g id="edge10" class="edge"><title>GoogleAuthenticationModule-&gt;AppModule</title><path fill="none" stroke="#000" d="M2629.3,-442.8C2629.3,-442.8 3490.09,-442.8 3490.09,-442.8"/><polygon fill="#000" stroke="#000" points="3490.09 -446.3 3500.09 -442.8 3490.09 -439.3 3490.09 -446.3"/></g><g id="node11" class="node"><title>HealthModule</title><polygon fill="#8dd3c7" stroke="#000" points="2909.37 -304.8 2906.37 -308.8 2885.37 -308.8 2882.37 -304.8 2812.63 -304.8 2812.63 -268.8 2909.37 -268.8 2909.37 -304.8"/><text x="2861" y="-282.6" font-family="Times,serif" font-size="14" text-anchor="middle">HealthModule</text></g><g id="edge11" class="edge"><title>HealthModule-&gt;AppModule</title><path fill="none" stroke="#000" d="M2861,-305.07C2861,-344.86 2861,-435.8 2861,-435.8 2861,-435.8 3490.17,-435.8 3490.17,-435.8"/><polygon fill="#000" stroke="#000" points="3490.17 -439.3 3500.17 -435.8 3490.17 -432.3 3490.17 -439.3"/></g><g id="node12" class="node"><title>LoggerModule</title><polygon fill="#8dd3c7" stroke="#000" points="2628.98 -228.8 2625.98 -232.8 2604.98 -232.8 2601.98 -228.8 2529.02 -228.8 2529.02 -192.8 2628.98 -192.8 2628.98 -228.8"/><text x="2579" y="-206.6" font-family="Times,serif" font-size="14" text-anchor="middle">LoggerModule</text></g><g id="edge12" class="edge"><title>LoggerModule-&gt;AppModule</title><path fill="none" stroke="#000" d="M2593.53,-228.83C2593.53,-235.65 2593.53,-241.8 2593.53,-241.8 2593.53,-241.8 3567.1,-241.8 3567.1,-241.8 3567.1,-241.8 3567.1,-399.63 3567.1,-399.63"/><polygon fill="#000" stroke="#000" points="3563.6 -399.63 3567.1 -409.63 3570.6 -399.63 3563.6 -399.63"/></g><g id="node46" class="node"><title>CustomLogger</title><polygon fill="#fb8072" stroke="#000" points="2984.99 -152.8 2881.01 -152.8 2881.01 -116.8 2984.99 -116.8 2984.99 -152.8"/><text x="2933" y="-130.6" font-family="Times,serif" font-size="14" text-anchor="middle">CustomLogger</text></g><g id="edge53" class="edge"><title>LoggerModule-&gt;CustomLogger</title><path fill="none" stroke="#000" stroke-dasharray="5 2" d="M2605.84,-192.68C2605.84,-189.83 2605.84,-187.8 2605.84,-187.8 2605.84,-187.8 2910.37,-187.8 2910.37,-187.8 2910.37,-187.8 2910.37,-163.04 2910.37,-163.04"/><polygon fill="#000" stroke="#000" points="2913.87 -163.04 2910.37 -153.04 2906.87 -163.04 2913.87 -163.04"/></g><g id="node13" class="node"><title>OptimizeModule</title><polygon fill="#8dd3c7" stroke="#000" points="2758.65 -228.8 2755.65 -232.8 2734.65 -232.8 2731.65 -228.8 2647.35 -228.8 2647.35 -192.8 2758.65 -192.8 2758.65 -228.8"/><text x="2703" y="-206.6" font-family="Times,serif" font-size="14" text-anchor="middle">OptimizeModule</text></g><g id="edge13" class="edge"><title>OptimizeModule-&gt;AppModule</title><path fill="none" stroke="#000" d="M2721.61,-229C2721.61,-234.83 2721.61,-239.8 2721.61,-239.8 2721.61,-239.8 3572.67,-239.8 3572.67,-239.8 3572.67,-239.8 3572.67,-399.77 3572.67,-399.77"/><polygon fill="#000" stroke="#000" points="3569.17 -399.77 3572.67 -409.77 3576.17 -399.77 3569.17 -399.77"/></g><g id="node14" class="node"><title>PostsModule</title><polygon fill="#8dd3c7" stroke="#000" points="3283.61 -304.8 3280.61 -308.8 3259.61 -308.8 3256.61 -304.8 3194.39 -304.8 3194.39 -268.8 3283.61 -268.8 3283.61 -304.8"/><text x="3239" y="-282.6" font-family="Times,serif" font-size="14" text-anchor="middle">PostsModule</text></g><g id="edge14" class="edge"><title>PostsModule-&gt;AppModule</title><path fill="none" stroke="#000" d="M3283.65,-297.8C3362.21,-297.8 3516.9,-297.8 3516.9,-297.8 3516.9,-297.8 3516.9,-399.72 3516.9,-399.72"/><polygon fill="#000" stroke="#000" points="3513.4 -399.72 3516.9 -409.72 3520.4 -399.72 3513.4 -399.72"/></g><g id="node15" class="node"><title>ProductCategoriesModule</title><polygon fill="#8dd3c7" stroke="#000" points="2939.47 -228.8 2936.47 -232.8 2915.47 -232.8 2912.47 -228.8 2776.53 -228.8 2776.53 -192.8 2939.47 -192.8 2939.47 -228.8"/><text x="2858" y="-206.6" font-family="Times,serif" font-size="14" text-anchor="middle">ProductCategoriesModule</text></g><g id="edge15" class="edge"><title>ProductCategoriesModule-&gt;AppModule</title><path fill="none" stroke="#000" d="M2918.36,-228.89C2918.36,-281.67 2918.36,-431.8 2918.36,-431.8 2918.36,-431.8 3490.11,-431.8 3490.11,-431.8"/><polygon fill="#000" stroke="#000" points="3490.11 -435.3 3500.11 -431.8 3490.11 -428.3 3490.11 -435.3"/></g><g id="node16" class="node"><title>ProductsModule</title><polygon fill="#8dd3c7" stroke="#000" points="3066.04 -228.8 3063.04 -232.8 3042.04 -232.8 3039.04 -228.8 2957.96 -228.8 2957.96 -192.8 3066.04 -192.8 3066.04 -228.8"/><text x="3012" y="-206.6" font-family="Times,serif" font-size="14" text-anchor="middle">ProductsModule</text></g><g id="edge16" class="edge"><title>ProductsModule-&gt;AppModule</title><path fill="none" stroke="#000" d="M3066.22,-210.8C3074.08,-210.8 3079.58,-210.8 3079.58,-210.8 3079.58,-210.8 3079.58,-424.8 3079.58,-424.8 3079.58,-424.8 3490.15,-424.8 3490.15,-424.8"/><polygon fill="#000" stroke="#000" points="3490.15 -428.3 3500.15 -424.8 3490.15 -421.3 3490.15 -428.3"/></g><g id="node17" class="node"><title>PubSubModule</title><polygon fill="#8dd3c7" stroke="#000" points="3187.62 -228.8 3184.62 -232.8 3163.62 -232.8 3160.62 -228.8 3084.38 -228.8 3084.38 -192.8 3187.62 -192.8 3187.62 -228.8"/><text x="3136" y="-206.6" font-family="Times,serif" font-size="14" text-anchor="middle">PubSubModule</text></g><g id="edge17" class="edge"><title>PubSubModule-&gt;AppModule</title><path fill="none" stroke="#000" d="M3182.2,-228.81C3182.2,-279.17 3182.2,-417.8 3182.2,-417.8 3182.2,-417.8 3490.02,-417.8 3490.02,-417.8"/><polygon fill="#000" stroke="#000" points="3490.02 -421.3 3500.02 -417.8 3490.02 -414.3 3490.02 -421.3"/></g><g id="node18" class="node"><title>SearchModule</title><polygon fill="#8dd3c7" stroke="#000" points="1668.64 -228.8 1665.64 -232.8 1644.64 -232.8 1641.64 -228.8 1571.36 -228.8 1571.36 -192.8 1668.64 -192.8 1668.64 -228.8"/><text x="1620" y="-206.6" font-family="Times,serif" font-size="14" text-anchor="middle">SearchModule</text></g><g id="edge51" class="edge"><title>SearchModule-&gt;HealthModule</title><path fill="none" stroke="#000" d="M1619.74,-228.81C1619.74,-244.85 1619.74,-265.8 1619.74,-265.8 1619.74,-265.8 2844.86,-265.8 2844.86,-265.8 2844.86,-265.8 2844.86,-266.09 2844.86,-266.09"/><polygon fill="#000" stroke="#000" points="2841.36 -258.72 2844.86 -268.72 2848.36 -258.72 2841.36 -258.72"/></g><g id="edge56" class="edge"><title>SearchModule-&gt;PostsModule</title><path fill="none" stroke="#000" d="M1636.1,-228.95C1636.1,-242.54 1636.1,-258.8 1636.1,-258.8 1636.1,-258.8 3257.56,-258.8 3257.56,-258.8 3257.56,-258.8 3257.56,-259.78 3257.56,-259.78"/><polygon fill="#000" stroke="#000" points="3254.06 -258.59 3257.56 -268.59 3261.06 -258.59 3254.06 -258.59"/></g><g id="edge18" class="edge"><title>SearchModule-&gt;AppModule</title><path fill="none" stroke="#000" d="M1652.46,-228.95C1652.46,-241.07 1652.46,-254.8 1652.46,-254.8 1652.46,-254.8 3528.06,-254.8 3528.06,-254.8 3528.06,-254.8 3528.06,-399.61 3528.06,-399.61"/><polygon fill="#000" stroke="#000" points="3524.56 -399.61 3528.06 -409.61 3531.56 -399.61 3524.56 -399.61"/></g><g id="node19" class="node"><title>SmsModule</title><polygon fill="#8dd3c7" stroke="#000" points="3176.67 -304.8 3173.67 -308.8 3152.67 -308.8 3149.67 -304.8 3093.33 -304.8 3093.33 -268.8 3176.67 -268.8 3176.67 -304.8"/><text x="3135" y="-282.6" font-family="Times,serif" font-size="14" text-anchor="middle">SmsModule</text></g><g id="edge19" class="edge"><title>SmsModule-&gt;AppModule</title><path fill="none" stroke="#000" d="M3135,-304.87C3135,-341.45 3135,-420.8 3135,-420.8 3135,-420.8 3489.98,-420.8 3489.98,-420.8"/><polygon fill="#000" stroke="#000" points="3489.98 -424.3 3499.98 -420.8 3489.98 -417.3 3489.98 -424.3"/></g><g id="node54" class="node"><title>SmsService</title><polygon fill="#fb8072" stroke="#000" points="3839.6 -380.8 3754.4 -380.8 3754.4 -344.8 3839.6 -344.8 3839.6 -380.8"/><text x="3797" y="-358.6" font-family="Times,serif" font-size="14" text-anchor="middle">SmsService</text></g><g id="edge64" class="edge"><title>SmsModule-&gt;SmsService</title><path fill="none" stroke="#000" stroke-dasharray="5 2" d="M3114.08,-304.96C3114.08,-309.84 3114.08,-313.8 3114.08,-313.8 3114.08,-313.8 3759.87,-313.8 3759.87,-313.8 3759.87,-313.8 3759.87,-334.55 3759.87,-334.55"/><polygon fill="#000" stroke="#000" points="3756.37 -334.55 3759.87 -344.55 3763.37 -334.55 3756.37 -334.55"/></g><g id="node20" class="node"><title>StripeWebhookModule</title><polygon fill="#8dd3c7" stroke="#000" points="3074.92 -304.8 3071.92 -308.8 3050.92 -308.8 3047.92 -304.8 2927.08 -304.8 2927.08 -268.8 3074.92 -268.8 3074.92 -304.8"/><text x="3001" y="-282.6" font-family="Times,serif" font-size="14" text-anchor="middle">StripeWebhookModule</text></g><g id="edge20" class="edge"><title>StripeWebhookModule-&gt;AppModule</title><path fill="none" stroke="#000" d="M3001,-304.94C3001,-343.03 3001,-427.8 3001,-427.8 3001,-427.8 3490,-427.8 3490,-427.8"/><polygon fill="#000" stroke="#000" points="3490 -431.3 3500 -427.8 3490 -424.3 3490 -431.3"/></g><g id="node21" class="node"><title>SubscribersModule</title><polygon fill="#8dd3c7" stroke="#000" points="3330.36 -228.8 3327.36 -232.8 3306.36 -232.8 3303.36 -228.8 3205.64 -228.8 3205.64 -192.8 3330.36 -192.8 3330.36 -228.8"/><text x="3268" y="-206.6" font-family="Times,serif" font-size="14" text-anchor="middle">SubscribersModule</text></g><g id="edge21" class="edge"><title>SubscribersModule-&gt;AppModule</title><path fill="none" stroke="#000" d="M3306.99,-228.81C3306.99,-278.5 3306.99,-413.8 3306.99,-413.8 3306.99,-413.8 3490.26,-413.8 3490.26,-413.8"/><polygon fill="#000" stroke="#000" points="3490.26 -417.3 3500.26 -413.8 3490.26 -410.3 3490.26 -417.3"/></g><g id="node22" class="node"><title>SubscriptionsModule</title><polygon fill="#8dd3c7" stroke="#000" points="3483.77 -228.8 3480.77 -232.8 3459.77 -232.8 3456.77 -228.8 3348.23 -228.8 3348.23 -192.8 3483.77 -192.8 3483.77 -228.8"/><text x="3416" y="-206.6" font-family="Times,serif" font-size="14" text-anchor="middle">SubscriptionsModule</text></g><g id="edge22" class="edge"><title>SubscriptionsModule-&gt;AppModule</title><path fill="none" stroke="#000" d="M3483.87,-210.8C3528.33,-210.8 3578.25,-210.8 3578.25,-210.8 3578.25,-210.8 3578.25,-399.67 3578.25,-399.67"/><polygon fill="#000" stroke="#000" points="3574.75 -399.67 3578.25 -409.67 3581.75 -399.67 3574.75 -399.67"/></g><g id="node23" class="node"><title>UsersModule</title><polygon fill="#8dd3c7" stroke="#000" points="1552.92 -228.8 1549.92 -232.8 1528.92 -232.8 1525.92 -228.8 1461.08 -228.8 1461.08 -192.8 1552.92 -192.8 1552.92 -228.8"/><text x="1507" y="-206.6" font-family="Times,serif" font-size="14" text-anchor="middle">UsersModule</text></g><g id="edge25" class="edge"><title>UsersModule-&gt;AuthenticationModule</title><path fill="none" stroke="#000" d="M1510.05,-228.83C1510.05,-228.83 1510.05,-334.79 1510.05,-334.79"/><polygon fill="#000" stroke="#000" points="1506.55 -334.79 1510.05 -344.79 1513.55 -334.79 1506.55 -334.79"/></g><g id="edge39" class="edge"><title>UsersModule-&gt;EmailConfirmationModule</title><path fill="none" stroke="#000" d="M1516.14,-229.11C1516.14,-248.95 1516.14,-277.8 1516.14,-277.8 1516.14,-277.8 2615.57,-277.8 2615.57,-277.8"/><polygon fill="#000" stroke="#000" points="2615.57 -281.3 2625.57 -277.8 2615.57 -274.3 2615.57 -281.3"/></g><g id="edge49" class="edge"><title>UsersModule-&gt;GoogleAuthenticationModule</title><path fill="none" stroke="#000" d="M1522.24,-228.84C1522.24,-245.53 1522.24,-267.8 1522.24,-267.8 1522.24,-267.8 2461.51,-267.8 2461.51,-267.8 2461.51,-267.8 2461.51,-399.76 2461.51,-399.76"/><polygon fill="#000" stroke="#000" points="2458.01 -399.76 2461.51 -409.76 2465.01 -399.76 2458.01 -399.76"/></g><g id="edge57" class="edge"><title>UsersModule-&gt;PostsModule</title><path fill="none" stroke="#000" d="M1540.52,-229.05C1540.52,-242.98 1540.52,-259.8 1540.52,-259.8 1540.52,-259.8 3231.56,-259.8 3231.56,-259.8 3231.56,-259.8 3231.56,-260.68 3231.56,-260.68"/><polygon fill="#000" stroke="#000" points="3228.06 -258.64 3231.56 -268.64 3235.06 -258.64 3228.06 -258.64"/></g><g id="edge63" class="edge"><title>UsersModule-&gt;SmsModule</title><path fill="none" stroke="#000" d="M1534.43,-228.92C1534.43,-243.58 1534.43,-261.8 1534.43,-261.8 1534.43,-261.8 3135,-261.8 3135,-261.8 3135,-261.8 3135,-262.48 3135,-262.48"/><polygon fill="#000" stroke="#000" points="3131.5 -258.63 3135 -268.63 3138.5 -258.63 3131.5 -258.63"/></g><g id="edge69" class="edge"><title>UsersModule-&gt;StripeWebhookModule</title><path fill="none" stroke="#000" d="M1528.33,-229.04C1528.33,-244.37 1528.33,-263.8 1528.33,-263.8 1528.33,-263.8 2948.61,-263.8 2948.61,-263.8 2948.61,-263.8 2948.61,-264.29 2948.61,-264.29"/><polygon fill="#000" stroke="#000" points="2945.11 -258.68 2948.61 -268.68 2952.11 -258.68 2945.11 -258.68"/></g><g id="edge23" class="edge"><title>UsersModule-&gt;AppModule</title><path fill="none" stroke="#000" d="M1546.62,-228.98C1546.62,-241.84 1546.62,-256.8 1546.62,-256.8 1546.62,-256.8 3522.48,-256.8 3522.48,-256.8 3522.48,-256.8 3522.48,-399.5 3522.48,-399.5"/><polygon fill="#000" stroke="#000" points="3518.98 -399.5 3522.48 -409.5 3525.98 -399.5 3518.98 -399.5"/></g><g id="node60" class="node"><title>UsersService</title><polygon fill="#fb8072" stroke="#000" points="3266.85 -152.8 3173.15 -152.8 3173.15 -116.8 3266.85 -116.8 3266.85 -152.8"/><text x="3220" y="-130.6" font-family="Times,serif" font-size="14" text-anchor="middle">UsersService</text></g><g id="edge75" class="edge"><title>UsersModule-&gt;UsersService</title><path fill="none" stroke="#000" stroke-dasharray="5 2" d="M1479.57,-192.56C1479.57,-177.23 1479.57,-157.8 1479.57,-157.8 1479.57,-157.8 3180.44,-157.8 3180.44,-157.8 3180.44,-157.8 3180.44,-157.31 3180.44,-157.31"/><polygon fill="#000" stroke="#000" points="3183.94 -162.92 3180.44 -152.92 3176.94 -162.92 3183.94 -162.92"/></g><g id="node26" class="node"><title>AuthenticationService</title><ellipse cx="494" cy="-286.8" fill="#fdb462" stroke="#000" rx="97.27" ry="18"/><text x="494" y="-282.6" font-family="Times,serif" font-size="14" text-anchor="middle">AuthenticationService</text></g><g id="edge27" class="edge"><title>AuthenticationService-&gt;AuthenticationModule</title><path fill="none" stroke="#000" d="M494,-304.84C494,-317.36 494,-331.8 494,-331.8 494,-331.8 1479.57,-331.8 1479.57,-331.8 1479.57,-331.8 1479.57,-334.77 1479.57,-334.77"/><polygon fill="#000" stroke="#000" points="1476.07 -334.77 1479.57 -344.77 1483.07 -334.77 1476.07 -334.77"/></g><g id="node27" class="node"><title>JwtRefreshTokenStrategy</title><ellipse cx="267" cy="-286.8" fill="#fdb462" stroke="#000" rx="111.15" ry="18"/><text x="267" y="-282.6" font-family="Times,serif" font-size="14" text-anchor="middle">JwtRefreshTokenStrategy</text></g><g id="edge28" class="edge"><title>JwtRefreshTokenStrategy-&gt;AuthenticationModule</title><path fill="none" stroke="#000" d="M267,-304.85C267,-319.17 267,-336.8 267,-336.8 267,-336.8 1473.48,-336.8 1473.48,-336.8 1473.48,-336.8 1473.48,-337.59 1473.48,-337.59"/><polygon fill="#000" stroke="#000" points="1469.98 -334.74 1473.48 -344.74 1476.98 -334.74 1469.98 -334.74"/></g><g id="node28" class="node"><title>JwtStrategy</title><ellipse cx="81" cy="-286.8" fill="#fdb462" stroke="#000" rx="56.76" ry="18"/><text x="81" y="-282.6" font-family="Times,serif" font-size="14" text-anchor="middle">JwtStrategy</text></g><g id="edge29" class="edge"><title>JwtStrategy-&gt;AuthenticationModule</title><path fill="none" stroke="#000" d="M81,-305.08C81,-320.75 81,-340.8 81,-340.8 81,-340.8 1467.38,-340.8 1467.38,-340.8 1467.38,-340.8 1467.38,-341.18 1467.38,-341.18"/><polygon fill="#000" stroke="#000" points="1463.88 -334.63 1467.38 -344.63 1470.88 -334.63 1463.88 -334.63"/></g><g id="node29" class="node"><title>JwtTwoFactorStrategy</title><ellipse cx="1154" cy="-286.8" fill="#fdb462" stroke="#000" rx="98.99" ry="18"/><text x="1154" y="-282.6" font-family="Times,serif" font-size="14" text-anchor="middle">JwtTwoFactorStrategy</text></g><g id="edge30" class="edge"><title>JwtTwoFactorStrategy-&gt;AuthenticationModule</title><path fill="none" stroke="#000" d="M1154,-305.04C1154,-312.23 1154,-318.8 1154,-318.8 1154,-318.8 1497.86,-318.8 1497.86,-318.8 1497.86,-318.8 1497.86,-334.65 1497.86,-334.65"/><polygon fill="#000" stroke="#000" points="1494.36 -334.65 1497.86 -344.65 1501.36 -334.65 1494.36 -334.65"/></g><g id="node30" class="node"><title>LocalStrategy</title><ellipse cx="972" cy="-286.8" fill="#fdb462" stroke="#000" rx="65.41" ry="18"/><text x="972" y="-282.6" font-family="Times,serif" font-size="14" text-anchor="middle">LocalStrategy</text></g><g id="edge31" class="edge"><title>LocalStrategy-&gt;AuthenticationModule</title><path fill="none" stroke="#000" d="M972,-304.8C972,-313.8 972,-322.8 972,-322.8 972,-322.8 1491.76,-322.8 1491.76,-322.8 1491.76,-322.8 1491.76,-334.67 1491.76,-334.67"/><polygon fill="#000" stroke="#000" points="1488.26 -334.67 1491.76 -344.67 1495.26 -334.67 1488.26 -334.67"/></g><g id="node31" class="node"><title>TwoFactorAuthenticationService</title><ellipse cx="749" cy="-286.8" fill="#fdb462" stroke="#000" rx="139.5" ry="18"/><text x="749" y="-282.6" font-family="Times,serif" font-size="14" text-anchor="middle">TwoFactorAuthenticationService</text></g><g id="edge32" class="edge"><title>TwoFactorAuthenticationService-&gt;AuthenticationModule</title><path fill="none" stroke="#000" d="M749,-304.9C749,-315.89 749,-327.8 749,-327.8 749,-327.8 1485.67,-327.8 1485.67,-327.8 1485.67,-327.8 1485.67,-334.48 1485.67,-334.48"/><polygon fill="#000" stroke="#000" points="1482.17 -334.48 1485.67 -344.48 1489.17 -334.48 1482.17 -334.48"/></g><g id="node32" class="node"><title>CategoriesService</title><ellipse cx="1532" cy="-134.8" fill="#fdb462" stroke="#000" rx="81.07" ry="18"/><text x="1532" y="-130.6" font-family="Times,serif" font-size="14" text-anchor="middle">CategoriesService</text></g><g id="edge33" class="edge"><title>CategoriesService-&gt;CategoriesModule</title><path fill="none" stroke="#000" d="M1592.23,-146.91C1592.23,-161.13 1592.23,-182.8 1592.23,-182.8 1592.23,-182.8 1747,-182.8 1747,-182.8 1747,-182.8 1747,-183.78 1747,-183.78"/><polygon fill="#000" stroke="#000" points="1743.5 -182.59 1747 -192.59 1750.5 -182.59 1743.5 -182.59"/></g><g id="node33" class="node"><title>StripeModule</title><polygon fill="#8dd3c7" stroke="#000" points="3462.49 -152.8 3459.49 -156.8 3438.49 -156.8 3435.49 -152.8 3369.51 -152.8 3369.51 -116.8 3462.49 -116.8 3462.49 -152.8"/><text x="3416" y="-130.6" font-family="Times,serif" font-size="14" text-anchor="middle">StripeModule</text></g><g id="edge34" class="edge"><title>StripeModule-&gt;ChargeModule</title><path fill="none" stroke="#000" d="M3400.5,-152.83C3400.5,-159.65 3400.5,-165.8 3400.5,-165.8 3400.5,-165.8 1915.83,-165.8 1915.83,-165.8 1915.83,-165.8 1915.83,-182.76 1915.83,-182.76"/><polygon fill="#000" stroke="#000" points="1912.33 -182.76 1915.83 -192.76 1919.33 -182.76 1912.33 -182.76"/></g><g id="edge37" class="edge"><title>StripeModule-&gt;CreditCardsModule</title><path fill="none" stroke="#000" d="M3416,-152.84C3416,-160.55 3416,-167.8 3416,-167.8 3416,-167.8 2188.91,-167.8 2188.91,-167.8 2188.91,-167.8 2188.91,-182.31 2188.91,-182.31"/><polygon fill="#000" stroke="#000" points="2185.41 -182.31 2188.91 -192.31 2192.41 -182.31 2185.41 -182.31"/></g><g id="edge68" class="edge"><title>StripeModule-&gt;StripeWebhookModule</title><path fill="none" stroke="#000" d="M3431.5,-152.98C3431.5,-165.84 3431.5,-180.8 3431.5,-180.8 3431.5,-180.8 3070.49,-180.8 3070.49,-180.8 3070.49,-180.8 3070.49,-258.34 3070.49,-258.34"/><polygon fill="#000" stroke="#000" points="3066.99 -258.34 3070.49 -268.34 3073.99 -258.34 3066.99 -258.34"/></g><g id="edge71" class="edge"><title>StripeModule-&gt;SubscriptionsModule</title><path fill="none" stroke="#000" d="M3447,-152.81C3447,-152.81 3447,-182.65 3447,-182.65"/><polygon fill="#000" stroke="#000" points="3443.5 -182.65 3447 -192.65 3450.5 -182.65 3443.5 -182.65"/></g><g id="edge74" class="edge"><title>StripeModule-&gt;UsersModule</title><path fill="none" stroke="#000" d="M3385,-152.86C3385,-157.29 3385,-160.8 3385,-160.8 3385,-160.8 1516.14,-160.8 1516.14,-160.8 1516.14,-160.8 1516.14,-182.75 1516.14,-182.75"/><polygon fill="#000" stroke="#000" points="1512.64 -182.75 1516.14 -192.75 1519.64 -182.75 1512.64 -182.75"/></g><g id="node56" class="node"><title>StripeService</title><polygon fill="#fb8072" stroke="#000" points="3860.42 -228.8 3765.58 -228.8 3765.58 -192.8 3860.42 -192.8 3860.42 -228.8"/><text x="3813" y="-206.6" font-family="Times,serif" font-size="14" text-anchor="middle">StripeService</text></g><g id="edge66" class="edge"><title>StripeModule-&gt;StripeService</title><path fill="none" stroke="#000" stroke-dasharray="5 2" d="M3462.71,-128.8C3567.65,-128.8 3813,-128.8 3813,-128.8 3813,-128.8 3813,-182.6 3813,-182.6"/><polygon fill="#000" stroke="#000" points="3809.5 -182.6 3813 -192.6 3816.5 -182.6 3809.5 -182.6"/></g><g id="node34" class="node"><title>ChatService</title><ellipse cx="1363" cy="-362.8" fill="#fdb462" stroke="#000" rx="58.46" ry="18"/><text x="1363" y="-358.6" font-family="Times,serif" font-size="14" text-anchor="middle">ChatService</text></g><g id="edge36" class="edge"><title>ChatService-&gt;ChatModule</title><path fill="none" stroke="#000" d="M1363,-380.91C1363,-400.14 1363,-427.8 1363,-427.8 1363,-427.8 1478.92,-427.8 1478.92,-427.8"/><polygon fill="#000" stroke="#000" points="1478.92 -431.3 1488.92 -427.8 1478.92 -424.3 1478.92 -431.3"/></g><g id="node35" class="node"><title>EmailModule</title><polygon fill="#8dd3c7" stroke="#000" points="4598.49 -228.8 4595.49 -232.8 4574.49 -232.8 4571.49 -228.8 4505.51 -228.8 4505.51 -192.8 4598.49 -192.8 4598.49 -228.8"/><text x="4552" y="-206.6" font-family="Times,serif" font-size="14" text-anchor="middle">EmailModule</text></g><g id="edge38" class="edge"><title>EmailModule-&gt;EmailConfirmationModule</title><path fill="none" stroke="#000" d="M4567.5,-228.97C4567.5,-231.25 4567.5,-232.8 4567.5,-232.8 4567.5,-232.8 2684.39,-232.8 2684.39,-232.8 2684.39,-232.8 2684.39,-258.52 2684.39,-258.52"/><polygon fill="#000" stroke="#000" points="2680.89 -258.52 2684.39 -268.52 2687.89 -258.52 2680.89 -258.52"/></g><g id="edge44" class="edge"><title>EmailModule-&gt;EmailSchedulingModule</title><path fill="none" stroke="#000" d="M4536.5,-228.95C4536.5,-230.1 4536.5,-230.8 4536.5,-230.8 4536.5,-230.8 2478,-230.8 2478,-230.8 2478,-230.8 2478,-230.62 2478,-230.62"/><polygon fill="#000" stroke="#000" points="2481.5 -238.95 2478 -228.95 2474.5 -238.95 2481.5 -238.95"/></g><g id="node38" class="node"><title>EmailService</title><polygon fill="#fb8072" stroke="#000" points="4666.42 -152.8 4571.58 -152.8 4571.58 -116.8 4666.42 -116.8 4666.42 -152.8"/><text x="4619" y="-130.6" font-family="Times,serif" font-size="14" text-anchor="middle">EmailService</text></g><g id="edge42" class="edge"><title>EmailModule-&gt;EmailService</title><path fill="none" stroke="#000" stroke-dasharray="5 2" d="M4585.02,-192.79C4585.02,-192.79 4585.02,-162.95 4585.02,-162.95"/><polygon fill="#000" stroke="#000" points="4588.52 -162.95 4585.02 -152.95 4581.52 -162.95 4588.52 -162.95"/></g><g id="node37" class="node"><title>EmailConfirmationService</title><ellipse cx="4173" cy="-210.8" fill="#fdb462" stroke="#000" rx="115.18" ry="18"/><text x="4173" y="-206.6" font-family="Times,serif" font-size="14" text-anchor="middle">EmailConfirmationService</text></g><g id="edge41" class="edge"><title>EmailConfirmationService-&gt;EmailConfirmationModule</title><path fill="none" stroke="#000" d="M4094.86,-224.2C4094.86,-229.7 4094.86,-234.8 4094.86,-234.8 4094.86,-234.8 2785.36,-234.8 2785.36,-234.8 2785.36,-234.8 2785.36,-258.61 2785.36,-258.61"/><polygon fill="#000" stroke="#000" points="2781.86 -258.61 2785.36 -268.61 2788.86 -258.61 2781.86 -258.61"/></g><g id="node39" class="node"><title>EmailService</title><ellipse cx="4485" cy="-134.8" fill="#fdb462" stroke="#000" rx="63.12" ry="18"/><text x="4485" y="-130.6" font-family="Times,serif" font-size="14" text-anchor="middle">EmailService</text></g><g id="edge43" class="edge"><title>EmailService-&gt;EmailModule</title><path fill="none" stroke="#000" d="M4526.78,-148.39C4526.78,-148.39 4526.78,-182.76 4526.78,-182.76"/><polygon fill="#000" stroke="#000" points="4523.28 -182.76 4526.78 -192.76 4530.28 -182.76 4523.28 -182.76"/></g><g id="node40" class="node"><title>EmailSchedulingService</title><ellipse cx="1760" cy="-134.8" fill="#fdb462" stroke="#000" rx="106.52" ry="18"/><text x="1760" y="-130.6" font-family="Times,serif" font-size="14" text-anchor="middle">EmailSchedulingService</text></g><g id="edge45" class="edge"><title>EmailSchedulingService-&gt;EmailSchedulingModule</title><path fill="none" stroke="#000" d="M1845.76,-145.65C1845.76,-158.39 1845.76,-177.8 1845.76,-177.8 1845.76,-177.8 2434.21,-177.8 2434.21,-177.8 2434.21,-177.8 2434.21,-182.76 2434.21,-182.76"/><polygon fill="#000" stroke="#000" points="2430.71 -182.76 2434.21 -192.76 2437.71 -182.76 2430.71 -182.76"/></g><g id="node41" class="node"><title>FilesService</title><polygon fill="#fb8072" stroke="#000" points="3995.2 -228.8 3906.8 -228.8 3906.8 -192.8 3995.2 -192.8 3995.2 -228.8"/><text x="3951" y="-206.6" font-family="Times,serif" font-size="14" text-anchor="middle">FilesService</text></g><g id="node42" class="node"><title>FilesModule</title><polygon fill="#8dd3c7" stroke="#000" points="3994.27 -152.8 3991.27 -156.8 3970.27 -156.8 3967.27 -152.8 3907.73 -152.8 3907.73 -116.8 3994.27 -116.8 3994.27 -152.8"/><text x="3951" y="-130.6" font-family="Times,serif" font-size="14" text-anchor="middle">FilesModule</text></g><g id="edge73" class="edge"><title>FilesModule-&gt;UsersModule</title><path fill="none" stroke="#000" d="M3936.54,-153.01C3936.54,-158.35 3936.54,-162.8 3936.54,-162.8 3936.54,-162.8 1534.43,-162.8 1534.43,-162.8 1534.43,-162.8 1534.43,-182.65 1534.43,-182.65"/><polygon fill="#000" stroke="#000" points="1530.93 -182.65 1534.43 -192.65 1537.93 -182.65 1530.93 -182.65"/></g><g id="edge46" class="edge"><title>FilesModule-&gt;FilesService</title><path fill="none" stroke="#000" stroke-dasharray="5 2" d="M3965.46,-152.81C3965.46,-152.81 3965.46,-182.65 3965.46,-182.65"/><polygon fill="#000" stroke="#000" points="3961.96 -182.65 3965.46 -192.65 3968.96 -182.65 3961.96 -182.65"/></g><g id="node43" class="node"><title>FilesService</title><ellipse cx="3959" cy="-66.8" fill="#fdb462" stroke="#000" rx="58.54" ry="18"/><text x="3959" y="-62.6" font-family="Times,serif" font-size="14" text-anchor="middle">FilesService</text></g><g id="edge47" class="edge"><title>FilesService-&gt;FilesModule</title><path fill="none" stroke="#000" d="M3951,-84.67C3951,-84.67 3951,-106.34 3951,-106.34"/><polygon fill="#000" stroke="#000" points="3947.5 -106.34 3951 -116.34 3954.5 -106.34 3947.5 -106.34"/></g><g id="node44" class="node"><title>GoogleAuthenticationService</title><ellipse cx="4006" cy="-362.8" fill="#fdb462" stroke="#000" rx="125.62" ry="18"/><text x="4006" y="-358.6" font-family="Times,serif" font-size="14" text-anchor="middle">GoogleAuthenticationService</text></g><g id="edge50" class="edge"><title>GoogleAuthenticationService-&gt;GoogleAuthenticationModule</title><path fill="none" stroke="#000" d="M3890.21,-355.43C3890.21,-340.87 3890.21,-309.8 3890.21,-309.8 3890.21,-309.8 2561.27,-309.8 2561.27,-309.8 2561.27,-309.8 2561.27,-399.62 2561.27,-399.62"/><polygon fill="#000" stroke="#000" points="2557.77 -399.62 2561.27 -409.62 2564.77 -399.62 2557.77 -399.62"/></g><g id="node45" class="node"><title>ElasticsearchHealthIndicator</title><ellipse cx="4761" cy="-210.8" fill="#fdb462" stroke="#000" rx="122.64" ry="18"/><text x="4761" y="-206.6" font-family="Times,serif" font-size="14" text-anchor="middle">ElasticsearchHealthIndicator</text></g><g id="edge52" class="edge"><title>ElasticsearchHealthIndicator-&gt;HealthModule</title><path fill="none" stroke="#000" d="M4761,-228.86C4761,-233.29 4761,-236.8 4761,-236.8 4761,-236.8 2877.14,-236.8 2877.14,-236.8 2877.14,-236.8 2877.14,-258.75 2877.14,-258.75"/><polygon fill="#000" stroke="#000" points="2873.64 -258.75 2877.14 -268.75 2880.64 -258.75 2873.64 -258.75"/></g><g id="node47" class="node"><title>CustomLogger</title><ellipse cx="2788" cy="-134.8" fill="#fdb462" stroke="#000" rx="68.94" ry="18"/><text x="2788" y="-130.6" font-family="Times,serif" font-size="14" text-anchor="middle">CustomLogger</text></g><g id="edge54" class="edge"><title>CustomLogger-&gt;LoggerModule</title><path fill="none" stroke="#000" d="M2738.93,-147.67C2738.93,-162.78 2738.93,-185.8 2738.93,-185.8 2738.93,-185.8 2617.42,-185.8 2617.42,-185.8 2617.42,-185.8 2617.42,-186.48 2617.42,-186.48"/><polygon fill="#000" stroke="#000" points="2613.92 -182.63 2617.42 -192.63 2620.92 -182.63 2613.92 -182.63"/></g><g id="node48" class="node"><title>LogsService</title><ellipse cx="2642" cy="-134.8" fill="#fdb462" stroke="#000" rx="59.11" ry="18"/><text x="2642" y="-130.6" font-family="Times,serif" font-size="14" text-anchor="middle">LogsService</text></g><g id="edge55" class="edge"><title>LogsService-&gt;LoggerModule</title><path fill="none" stroke="#000" d="M2594.27,-145.69C2594.27,-145.69 2594.27,-182.59 2594.27,-182.59"/><polygon fill="#000" stroke="#000" points="2590.77 -182.59 2594.27 -192.59 2597.77 -182.59 2590.77 -182.59"/></g><g id="node49" class="node"><title>PostsLoaders</title><ellipse cx="5316" cy="-210.8" fill="#fdb462" stroke="#000" rx="62.56" ry="18"/><text x="5316" y="-206.6" font-family="Times,serif" font-size="14" text-anchor="middle">PostsLoaders</text></g><g id="edge58" class="edge"><title>PostsLoaders-&gt;PostsModule</title><path fill="none" stroke="#000" d="M5316,-228.95C5316,-252.56 5316,-290.8 5316,-290.8 5316,-290.8 3293.83,-290.8 3293.83,-290.8"/><polygon fill="#000" stroke="#000" points="3293.83 -287.3 3283.83 -290.8 3293.83 -294.3 3293.83 -287.3"/></g><g id="node50" class="node"><title>PostsSearchService</title><ellipse cx="5149" cy="-210.8" fill="#fdb462" stroke="#000" rx="86.81" ry="18"/><text x="5149" y="-206.6" font-family="Times,serif" font-size="14" text-anchor="middle">PostsSearchService</text></g><g id="edge59" class="edge"><title>PostsSearchService-&gt;PostsModule</title><path fill="none" stroke="#000" d="M5149,-228.84C5149,-250.46 5149,-283.8 5149,-283.8 5149,-283.8 3293.86,-283.8 3293.86,-283.8"/><polygon fill="#000" stroke="#000" points="3293.86 -280.3 3283.86 -283.8 3293.86 -287.3 3293.86 -280.3"/></g><g id="node51" class="node"><title>PostsService</title><ellipse cx="4984" cy="-210.8" fill="#fdb462" stroke="#000" rx="60.27" ry="18"/><text x="4984" y="-206.6" font-family="Times,serif" font-size="14" text-anchor="middle">PostsService</text></g><g id="edge60" class="edge"><title>PostsService-&gt;PostsModule</title><path fill="none" stroke="#000" d="M4984,-228.83C4984,-248.38 4984,-276.8 4984,-276.8 4984,-276.8 3293.89,-276.8 3293.89,-276.8"/><polygon fill="#000" stroke="#000" points="3293.89 -273.3 3283.89 -276.8 3293.89 -280.3 3293.89 -273.3"/></g><g id="node52" class="node"><title>ProductCategoriesService</title><ellipse cx="2018" cy="-134.8" fill="#fdb462" stroke="#000" rx="111.15" ry="18"/><text x="2018" y="-130.6" font-family="Times,serif" font-size="14" text-anchor="middle">ProductCategoriesService</text></g><g id="edge61" class="edge"><title>ProductCategoriesService-&gt;ProductCategoriesModule</title><path fill="none" stroke="#000" d="M2105.36,-146C2105.36,-158.14 2105.36,-175.8 2105.36,-175.8 2105.36,-175.8 2816.74,-175.8 2816.74,-175.8 2816.74,-175.8 2816.74,-182.48 2816.74,-182.48"/><polygon fill="#000" stroke="#000" points="2813.24 -182.48 2816.74 -192.48 2820.24 -182.48 2813.24 -182.48"/></g><g id="node53" class="node"><title>ProductsService</title><ellipse cx="2243" cy="-134.8" fill="#fdb462" stroke="#000" rx="73.57" ry="18"/><text x="2243" y="-130.6" font-family="Times,serif" font-size="14" text-anchor="middle">ProductsService</text></g><g id="edge62" class="edge"><title>ProductsService-&gt;ProductsModule</title><path fill="none" stroke="#000" d="M2271.68,-151.58C2271.68,-161.76 2271.68,-172.8 2271.68,-172.8 2271.68,-172.8 2971.24,-172.8 2971.24,-172.8 2971.24,-172.8 2971.24,-182.69 2971.24,-182.69"/><polygon fill="#000" stroke="#000" points="2967.74 -182.69 2971.24 -192.69 2974.74 -182.69 2967.74 -182.69"/></g><g id="node55" class="node"><title>SmsService</title><ellipse cx="3673" cy="-362.8" fill="#fdb462" stroke="#000" rx="56.76" ry="18"/><text x="3673" y="-358.6" font-family="Times,serif" font-size="14" text-anchor="middle">SmsService</text></g><g id="edge65" class="edge"><title>SmsService-&gt;SmsModule</title><path fill="none" stroke="#000" d="M3619.61,-356.8C3487.5,-356.8 3155.92,-356.8 3155.92,-356.8 3155.92,-356.8 3155.92,-314.83 3155.92,-314.83"/><polygon fill="#000" stroke="#000" points="3159.42 -314.83 3155.92 -304.83 3152.42 -314.83 3159.42 -314.83"/></g><g id="node57" class="node"><title>StripeService</title><ellipse cx="3679" cy="-210.8" fill="#fdb462" stroke="#000" rx="63.12" ry="18"/><text x="3679" y="-206.6" font-family="Times,serif" font-size="14" text-anchor="middle">StripeService</text></g><g id="edge67" class="edge"><title>StripeService-&gt;StripeModule</title><path fill="none" stroke="#000" d="M3679,-192.77C3679,-172.03 3679,-140.8 3679,-140.8 3679,-140.8 3472.72,-140.8 3472.72,-140.8"/><polygon fill="#000" stroke="#000" points="3472.72 -137.3 3462.72 -140.8 3472.72 -144.3 3472.72 -137.3"/></g><g id="node58" class="node"><title>StripeWebhookService</title><ellipse cx="5520" cy="-210.8" fill="#fdb462" stroke="#000" rx="100.7" ry="18"/><text x="5520" y="-206.6" font-family="Times,serif" font-size="14" text-anchor="middle">StripeWebhookService</text></g><g id="edge70" class="edge"><title>StripeWebhookService-&gt;StripeWebhookModule</title><path fill="none" stroke="#000" d="M5520,-229.01C5520,-234.35 5520,-238.8 5520,-238.8 5520,-238.8 3012,-238.8 3012,-238.8 3012,-238.8 3012,-258.65 3012,-258.65"/><polygon fill="#000" stroke="#000" points="3008.5 -258.65 3012 -268.65 3015.5 -258.65 3008.5 -258.65"/></g><g id="node59" class="node"><title>SubscriptionsService</title><ellipse cx="2450" cy="-134.8" fill="#fdb462" stroke="#000" rx="92.63" ry="18"/><text x="2450" y="-130.6" font-family="Times,serif" font-size="14" text-anchor="middle">SubscriptionsService</text></g><g id="edge72" class="edge"><title>SubscriptionsService-&gt;SubscriptionsModule</title><path fill="none" stroke="#000" d="M2535.79,-141.74C2535.79,-152.2 2535.79,-170.8 2535.79,-170.8 2535.79,-170.8 3358.81,-170.8 3358.81,-170.8 3358.81,-170.8 3358.81,-182.67 3358.81,-182.67"/><polygon fill="#000" stroke="#000" points="3355.31 -182.67 3358.81 -192.67 3362.31 -182.67 3355.31 -182.67"/></g><g id="node61" class="node"><title>UsersService</title><ellipse cx="3087" cy="-134.8" fill="#fdb462" stroke="#000" rx="61.95" ry="18"/><text x="3087" y="-130.6" font-family="Times,serif" font-size="14" text-anchor="middle">UsersService</text></g><g id="edge76" class="edge"><title>UsersService-&gt;UsersModule</title><path fill="none" stroke="#000" d="M3045.65,-148.22C3045.65,-152.33 3045.65,-155.8 3045.65,-155.8 3045.65,-155.8 1497.86,-155.8 1497.86,-155.8 1497.86,-155.8 1497.86,-182.79 1497.86,-182.79"/><polygon fill="#000" stroke="#000" points="1494.36 -182.79 1497.86 -192.79 1501.36 -182.79 1494.36 -182.79"/></g></g></svg>